<svg width="263" height="500" viewBox="0 0 263 500" fill="none" xmlns="http://www.w3.org/2000/svg">
<g filter="url(#filter0_d_4915_7)">
<path fill-rule="evenodd" clip-rule="evenodd" d="M35.8442 0.569458H227.442C245.817 0.569458 260.713 14.8052 260.713 32.3658V467.646C260.713 485.207 245.817 499.443 227.442 499.443H35.8442C17.4689 499.443 2.57275 485.207 2.57275 467.646V32.3658C2.57275 14.8052 17.4689 0.569458 35.8442 0.569458Z" fill="#213648"/>
</g>
<path opacity="0.595562" fill-rule="evenodd" clip-rule="evenodd" d="M228.182 0H34.9891C25.9694 0.548969 17.6509 4.65705 10.0337 12.3242C14.9324 8.05609 23.6698 2.34462 35.2216 2.34462C35.2216 2.34462 220.249 2.34462 227.95 2.34462C239.502 2.34462 248.239 8.05609 253.138 12.3242C245.52 4.65705 237.202 0.548969 228.182 0Z" fill="url(#paint0_linear_4915_7)" fill-opacity="0.65"/>
<path opacity="0.75" fill-rule="evenodd" clip-rule="evenodd" d="M255.485 462.682V34.9827C255.485 23.5071 251.26 19.2649 248.739 16.5409C246.218 13.8169 246.111 12.4276 249.733 14.4843C253.355 16.5409 260.599 22.5311 260.599 34.9827V462.682C260.599 475.134 253.355 481.124 249.733 483.181C246.111 485.237 246.218 483.848 248.739 481.124C251.26 478.4 255.485 474.158 255.485 462.682Z" fill="url(#paint1_linear_4915_7)"/>
<path opacity="0.75" fill-rule="evenodd" clip-rule="evenodd" d="M7.68668 462.682V34.9827C7.68668 23.5071 11.9122 19.2649 14.4329 16.5409C16.9536 13.8169 17.0609 12.4276 13.439 14.4843C9.81721 16.5409 2.57298 22.5311 2.57298 34.9827V462.682C2.57298 475.134 9.81721 481.124 13.439 483.181C17.0609 485.237 16.9536 483.848 14.4329 481.124C11.9122 478.4 7.68668 474.158 7.68668 462.682Z" fill="url(#paint2_linear_4915_7)"/>
<path fill-rule="evenodd" clip-rule="evenodd" d="M0 103.559C0 102.454 0.895431 101.559 2 101.559H2.974C4.07856 101.559 4.974 102.454 4.974 103.559V163.911C4.974 165.016 4.07856 165.911 2.97399 165.911H2C0.895431 165.911 0 165.016 0 163.911V103.559Z" fill="#2E423C"/>
<path fill-rule="evenodd" clip-rule="evenodd" d="M258.026 156.047C258.026 154.943 258.921 154.047 260.026 154.047H261C262.104 154.047 263 154.943 263 156.047V198.998C263 200.103 262.104 200.998 261 200.998H260.026C258.921 200.998 258.026 200.103 258.026 198.998V156.047Z" fill="#2E423C"/>
<g clip-path="url(#clip0_4915_7)">
<path fill-rule="evenodd" clip-rule="evenodd" d="M108.883 12.4447L34.3352 12.4447C23.2096 12.4447 15.103 20.0082 15.103 29.8865V452.286C15.103 465.167 27.6291 476.579 41.7929 476.579H221.468C235.111 476.579 248.157 465.078 248.157 452.286V31.0283C248.157 19.1884 239.351 12.5151 228.925 12.4447L153.195 12.4447C152.908 12.4916 147.706 14.6265 145.508 20.0082C143.309 25.3899 138.885 29.68 134.041 29.68H128.416C126.113 29.68 120.052 27.4502 116.983 20.0082C113.914 12.5661 109.17 12.4916 108.883 12.4447Z" fill="white"/>
<mask id="mask0_4915_7" style="mask-type:luminance" maskUnits="userSpaceOnUse" x="15" y="12" width="234" height="465">
<path fill-rule="evenodd" clip-rule="evenodd" d="M108.883 12.4447L34.3352 12.4447C23.2096 12.4447 15.103 20.0082 15.103 29.8865V452.286C15.103 465.167 27.6291 476.579 41.7929 476.579H221.468C235.111 476.579 248.157 465.078 248.157 452.286V31.0283C248.157 19.1884 239.351 12.5151 228.925 12.4447L153.195 12.4447C152.908 12.4916 147.706 14.6265 145.508 20.0082C143.309 25.3899 138.885 29.68 134.041 29.68H128.416C126.113 29.68 120.052 27.4502 116.983 20.0082C113.914 12.5661 109.17 12.4916 108.883 12.4447Z" fill="white"/>
</mask>
<g mask="url(#mask0_4915_7)">
<rect x="15.0288" y="12.4447" width="233.444" height="465.011" fill="url(#paint3_linear_4915_7)"/>
<path d="M94.6737 141V123.672H90.5457V121.032C91.8683 121.032 92.935 120.91 93.7457 120.664C94.567 120.408 95.1803 120.046 95.5857 119.576C95.991 119.096 96.231 118.526 96.3057 117.864H99.4097V141H94.6737ZM104.665 141V138.696V137.512C104.665 136.339 104.884 135.326 105.321 134.472C105.759 133.608 106.335 132.862 107.049 132.232C107.775 131.592 108.564 131.032 109.417 130.552C110.281 130.072 111.145 129.619 112.009 129.192C112.873 128.766 113.663 128.339 114.377 127.912C115.103 127.475 115.684 126.99 116.121 126.456C116.559 125.923 116.777 125.294 116.777 124.568C116.777 123.64 116.452 122.883 115.801 122.296C115.161 121.71 114.281 121.416 113.161 121.416C111.999 121.416 111.012 121.752 110.201 122.424C109.391 123.096 108.889 124.11 108.697 125.464H104.233C104.255 123.992 104.596 122.659 105.257 121.464C105.929 120.259 106.932 119.304 108.265 118.6C109.599 117.896 111.273 117.544 113.289 117.544C115.017 117.544 116.505 117.838 117.753 118.424C119.012 119.011 119.983 119.827 120.665 120.872C121.348 121.918 121.689 123.139 121.689 124.536C121.689 125.699 121.476 126.702 121.049 127.544C120.623 128.387 120.057 129.107 119.353 129.704C118.649 130.302 117.876 130.824 117.033 131.272C116.191 131.72 115.348 132.136 114.505 132.52C113.673 132.904 112.905 133.299 112.201 133.704C111.497 134.099 110.932 134.547 110.505 135.048C110.079 135.55 109.865 136.152 109.865 136.856V137.064H121.657V141H104.665ZM129.874 124.856V129.864H124.754V124.856H129.874ZM129.874 135.912V140.904H124.754V135.912H129.874ZM143.621 117.864H148.213V131.96H151.781V135.88H148.213V141H143.717L143.733 135.88H133.077V132.04L143.621 117.864ZM137.397 131.96H143.733V123.48L137.397 131.96ZM162.605 141.352C161.165 141.352 159.821 141.075 158.573 140.52C157.325 139.966 156.306 139.187 155.517 138.184C154.728 137.171 154.285 135.987 154.189 134.632H158.637C158.829 135.528 159.256 136.259 159.917 136.824C160.578 137.379 161.41 137.656 162.413 137.656C163.522 137.656 164.493 137.395 165.325 136.872C166.168 136.35 166.797 135.518 167.213 134.376C167.64 133.235 167.789 131.742 167.661 129.896C167.362 130.462 166.946 130.958 166.413 131.384C165.89 131.8 165.277 132.126 164.573 132.36C163.869 132.584 163.085 132.696 162.221 132.696C160.653 132.696 159.261 132.403 158.045 131.816C156.84 131.219 155.89 130.376 155.197 129.288C154.514 128.19 154.173 126.888 154.173 125.384C154.173 123.87 154.536 122.52 155.261 121.336C155.986 120.152 157 119.224 158.301 118.552C159.602 117.88 161.128 117.544 162.877 117.544C164.84 117.544 166.53 118.014 167.949 118.952C169.378 119.88 170.472 121.203 171.229 122.92C171.997 124.627 172.381 126.638 172.381 128.952C172.381 131.715 171.986 134.019 171.197 135.864C170.418 137.699 169.298 139.075 167.837 139.992C166.376 140.899 164.632 141.352 162.605 141.352ZM163.021 128.984C163.672 128.984 164.301 128.84 164.909 128.552C165.528 128.254 166.034 127.88 166.429 127.432C166.824 126.984 167.021 126.52 167.021 126.04C167.032 125.006 166.866 124.12 166.525 123.384C166.194 122.638 165.725 122.067 165.117 121.672C164.52 121.278 163.821 121.08 163.021 121.08C162.285 121.08 161.629 121.251 161.053 121.592C160.477 121.934 160.024 122.414 159.693 123.032C159.362 123.651 159.197 124.366 159.197 125.176C159.197 126.382 159.549 127.32 160.253 127.992C160.957 128.654 161.88 128.984 163.021 128.984Z" fill="white"/>
</g>
</g>
<g clip-path="url(#clip1_4915_7)">
<g filter="url(#filter1_d_4915_7)">
<rect x="22.042" y="167.004" width="218.415" height="87.0021" rx="5" fill="#FBFCFE"/>
</g>
<g clip-path="url(#clip2_4915_7)">
<path d="M38.8825 193.004V185.774H41.5425C42.0692 185.774 42.5408 185.866 42.9575 186.049C43.3742 186.229 43.7025 186.496 43.9425 186.849C44.1858 187.203 44.3075 187.634 44.3075 188.144C44.3075 188.624 44.2008 189.034 43.9875 189.374C43.7742 189.714 43.4742 189.974 43.0875 190.154C42.7042 190.334 42.2525 190.424 41.7325 190.424H40.3525V193.004H38.8825ZM40.3375 189.294H41.6925C42.0592 189.294 42.3592 189.178 42.5925 188.944C42.8258 188.708 42.9425 188.416 42.9425 188.069C42.9425 187.709 42.8192 187.424 42.5725 187.214C42.3258 187.001 42.0258 186.894 41.6725 186.894H40.3375V189.294ZM46.5842 193.104C46.2542 193.104 45.9576 193.043 45.6942 192.919C45.4309 192.796 45.2226 192.618 45.0692 192.384C44.9159 192.148 44.8392 191.861 44.8392 191.524C44.8392 190.958 45.0509 190.528 45.4742 190.234C45.8976 189.938 46.5659 189.784 47.4792 189.774L48.1242 189.764V189.454C48.1242 189.218 48.0542 189.036 47.9142 188.909C47.7776 188.779 47.5642 188.716 47.2742 188.719C47.0609 188.723 46.8576 188.773 46.6642 188.869C46.4742 188.966 46.3442 189.134 46.2742 189.374H45.0592C45.0792 189.001 45.1876 188.694 45.3842 188.454C45.5809 188.211 45.8476 188.031 46.1842 187.914C46.5242 187.794 46.9092 187.734 47.3392 187.734C47.8692 187.734 48.2942 187.801 48.6142 187.934C48.9342 188.064 49.1659 188.253 49.3092 188.499C49.4526 188.743 49.5242 189.033 49.5242 189.369V193.004H48.3042L48.1842 192.114C48.0076 192.488 47.7859 192.746 47.5192 192.889C47.2559 193.033 46.9442 193.104 46.5842 193.104ZM47.0742 192.144C47.2076 192.144 47.3359 192.121 47.4592 192.074C47.5859 192.024 47.6976 191.959 47.7942 191.879C47.8942 191.796 47.9742 191.703 48.0342 191.599C48.0942 191.496 48.1242 191.389 48.1242 191.279V190.514L47.5992 190.524C47.3559 190.528 47.1292 190.558 46.9192 190.614C46.7092 190.668 46.5392 190.756 46.4092 190.879C46.2826 191.003 46.2192 191.169 46.2192 191.379C46.2192 191.619 46.3026 191.808 46.4692 191.944C46.6359 192.078 46.8376 192.144 47.0742 192.144ZM51.4361 194.654C51.0828 194.654 50.8328 194.624 50.6861 194.564C50.5428 194.508 50.4711 194.479 50.4711 194.479V193.549L50.9811 193.569C51.2044 193.583 51.3844 193.571 51.5211 193.534C51.6578 193.501 51.7611 193.456 51.8311 193.399C51.9044 193.343 51.9561 193.283 51.9861 193.219C52.0161 193.159 52.0378 193.111 52.0511 193.074L52.1461 192.789L50.1361 187.834H51.5811L52.8211 191.204L54.0761 187.834H55.5011L53.4061 193.034C53.2261 193.474 53.0361 193.811 52.8361 194.044C52.6361 194.278 52.4194 194.438 52.1861 194.524C51.9561 194.611 51.7061 194.654 51.4361 194.654ZM55.2909 193.004L57.8809 185.774H59.4209L62.0059 193.004H60.5509L59.9609 191.329H57.3609L56.7559 193.004H55.2909ZM57.6859 190.054H59.6109L58.6559 187.184L57.6859 190.054ZM63.0915 193.004V185.774H65.7515C66.2782 185.774 66.7498 185.866 67.1665 186.049C67.5832 186.229 67.9115 186.496 68.1515 186.849C68.3948 187.203 68.5165 187.634 68.5165 188.144C68.5165 188.624 68.4098 189.034 68.1965 189.374C67.9832 189.714 67.6832 189.974 67.2965 190.154C66.9132 190.334 66.4615 190.424 65.9415 190.424H64.5615V193.004H63.0915ZM64.5465 189.294H65.9015C66.2682 189.294 66.5682 189.178 66.8015 188.944C67.0348 188.708 67.1515 188.416 67.1515 188.069C67.1515 187.709 67.0282 187.424 66.7815 187.214C66.5348 187.001 66.2348 186.894 65.8815 186.894H64.5465V189.294ZM69.6149 185.774H71.0699V193.004H69.6149V185.774Z" fill="#BA4270"/>
<path opacity="0.5" d="M186.046 191.299C186.046 191.683 186.002 192.009 185.916 192.279C185.829 192.549 185.674 192.754 185.451 192.894C185.231 193.034 184.917 193.104 184.511 193.104C184.254 193.104 184.012 193.074 183.786 193.014C183.562 192.954 183.414 192.909 183.341 192.879L183.406 191.994C183.509 192.031 183.627 192.078 183.761 192.134C183.897 192.188 184.066 192.214 184.266 192.214C184.592 192.214 184.816 192.124 184.936 191.944C185.059 191.764 185.121 191.461 185.121 191.034V185.774H186.046V191.299ZM189.477 193.104C189.207 193.101 188.952 193.063 188.712 192.989C188.476 192.913 188.266 192.801 188.082 192.654C187.899 192.508 187.754 192.326 187.647 192.109C187.544 191.889 187.492 191.634 187.492 191.344V187.834H188.417V191.249C188.417 191.586 188.521 191.859 188.727 192.069C188.937 192.279 189.252 192.384 189.672 192.384C190.052 192.384 190.357 192.286 190.587 192.089C190.821 191.889 190.937 191.593 190.937 191.199V187.834H191.857V193.004H191.122L191.027 192.014C190.964 192.274 190.856 192.484 190.702 192.644C190.552 192.804 190.371 192.923 190.157 192.999C189.947 193.073 189.721 193.108 189.477 193.104ZM195.135 193.104C194.775 193.104 194.44 193.049 194.13 192.939C193.823 192.826 193.568 192.651 193.365 192.414C193.162 192.174 193.033 191.869 192.98 191.499H193.82C193.867 191.703 193.95 191.873 194.07 192.009C194.193 192.143 194.347 192.244 194.53 192.314C194.713 192.381 194.913 192.414 195.13 192.414C195.477 192.414 195.757 192.349 195.97 192.219C196.183 192.089 196.29 191.889 196.29 191.619C196.29 191.429 196.233 191.278 196.12 191.164C196.01 191.048 195.838 190.963 195.605 190.909L194.535 190.644C194.118 190.544 193.785 190.388 193.535 190.174C193.285 189.961 193.16 189.663 193.16 189.279C193.157 188.976 193.228 188.709 193.375 188.479C193.522 188.249 193.742 188.068 194.035 187.934C194.328 187.801 194.693 187.734 195.13 187.734C195.69 187.734 196.142 187.861 196.485 188.114C196.832 188.364 197.012 188.733 197.025 189.219H196.21C196.177 188.973 196.065 188.778 195.875 188.634C195.688 188.488 195.437 188.414 195.12 188.414C194.79 188.414 194.522 188.481 194.315 188.614C194.108 188.744 194.005 188.948 194.005 189.224C194.005 189.408 194.078 189.553 194.225 189.659C194.372 189.763 194.588 189.849 194.875 189.919L195.91 190.179C196.15 190.243 196.347 190.326 196.5 190.429C196.657 190.533 196.78 190.648 196.87 190.774C196.963 190.901 197.028 191.034 197.065 191.174C197.105 191.311 197.125 191.443 197.125 191.569C197.125 191.886 197.045 192.159 196.885 192.389C196.728 192.616 196.502 192.793 196.205 192.919C195.912 193.043 195.555 193.104 195.135 193.104ZM200.927 188.509H199.762V191.724C199.762 191.908 199.78 192.043 199.817 192.129C199.857 192.213 199.922 192.266 200.012 192.289C200.105 192.313 200.232 192.324 200.392 192.324H200.957V192.944C200.893 192.968 200.797 192.988 200.667 193.004C200.54 193.021 200.382 193.029 200.192 193.029C199.835 193.029 199.558 192.981 199.362 192.884C199.165 192.788 199.027 192.644 198.947 192.454C198.87 192.264 198.832 192.031 198.832 191.754V188.509H197.992V187.834H198.857L199.082 186.329H199.762V187.829H200.927V188.509ZM209.455 185.774H210.38V193.004H209.555L205.675 187.304V193.004H204.75V185.774H205.635L209.455 191.394V185.774ZM214.086 193.104C213.609 193.104 213.192 193.003 212.836 192.799C212.479 192.593 212.202 192.291 212.006 191.894C211.809 191.498 211.711 191.013 211.711 190.439C211.711 189.899 211.802 189.426 211.986 189.019C212.169 188.613 212.437 188.298 212.791 188.074C213.147 187.848 213.579 187.734 214.086 187.734C214.562 187.734 214.976 187.839 215.326 188.049C215.679 188.256 215.952 188.561 216.146 188.964C216.339 189.368 216.436 189.859 216.436 190.439C216.436 190.966 216.346 191.429 216.166 191.829C215.989 192.229 215.726 192.543 215.376 192.769C215.029 192.993 214.599 193.104 214.086 193.104ZM214.086 192.374C214.396 192.374 214.657 192.296 214.871 192.139C215.084 191.983 215.246 191.758 215.356 191.464C215.466 191.171 215.521 190.823 215.521 190.419C215.521 190.049 215.472 189.718 215.376 189.424C215.279 189.128 215.124 188.893 214.911 188.719C214.701 188.546 214.426 188.459 214.086 188.459C213.772 188.459 213.507 188.538 213.291 188.694C213.074 188.848 212.909 189.071 212.796 189.364C212.686 189.658 212.631 190.009 212.631 190.419C212.631 190.783 212.681 191.113 212.781 191.409C212.881 191.706 213.037 191.941 213.251 192.114C213.464 192.288 213.742 192.374 214.086 192.374ZM224.26 187.834L222.695 193.004H221.785L220.605 189.189L219.485 193.004H218.58L216.985 187.834H217.84L219.025 191.809H219.105L220.27 187.834H220.97L222.18 191.799H222.26L223.395 187.834H224.26Z" fill="#36536B"/>
</g>
<path d="M38.3025 202.624V201.774H43.7725V202.624H41.5675V209.004H40.6375V202.624H38.3025ZM44.775 209.004V201.574H45.675V204.594C45.7617 204.451 45.8783 204.317 46.025 204.194C46.1717 204.067 46.35 203.966 46.56 203.889C46.77 203.809 47.0133 203.769 47.29 203.769C47.6267 203.769 47.9317 203.832 48.205 203.959C48.4783 204.082 48.695 204.259 48.855 204.489C49.015 204.719 49.095 204.992 49.095 205.309V209.004H48.17V205.494C48.17 205.184 48.0633 204.946 47.85 204.779C47.64 204.609 47.365 204.524 47.025 204.524C46.795 204.524 46.5783 204.562 46.375 204.639C46.1717 204.712 46.0067 204.826 45.88 204.979C45.7567 205.129 45.695 205.321 45.695 205.554V209.004H44.775ZM51.1967 206.634C51.1967 206.961 51.2501 207.257 51.3567 207.524C51.4667 207.787 51.6317 207.997 51.8517 208.154C52.0751 208.311 52.3534 208.389 52.6867 208.389C53.0167 208.389 53.3001 208.312 53.5367 208.159C53.7767 208.006 53.9301 207.784 53.9967 207.494H54.8717C54.8084 207.844 54.6684 208.139 54.4517 208.379C54.2351 208.619 53.9734 208.801 53.6667 208.924C53.3601 209.044 53.0401 209.104 52.7067 209.104C52.2234 209.104 51.7984 208.999 51.4317 208.789C51.0651 208.579 50.7784 208.277 50.5717 207.884C50.3651 207.491 50.2617 207.019 50.2617 206.469C50.2617 205.926 50.3551 205.449 50.5417 205.039C50.7284 204.629 50.9984 204.309 51.3517 204.079C51.7084 203.849 52.1367 203.734 52.6367 203.734C53.1234 203.734 53.5351 203.839 53.8717 204.049C54.2084 204.259 54.4634 204.556 54.6367 204.939C54.8134 205.319 54.9017 205.771 54.9017 206.294V206.634H51.1967ZM51.2017 206.009H54.0117C54.0117 205.712 53.9617 205.446 53.8617 205.209C53.7617 204.969 53.6084 204.781 53.4017 204.644C53.1984 204.504 52.9417 204.434 52.6317 204.434C52.3084 204.434 52.0401 204.512 51.8267 204.669C51.6167 204.822 51.4584 205.021 51.3517 205.264C51.2484 205.504 51.1984 205.752 51.2017 206.009ZM58.4176 210.614V203.834H59.3376L59.3476 204.734C59.4076 204.627 59.4843 204.516 59.5776 204.399C59.6743 204.282 59.7909 204.174 59.9276 204.074C60.0676 203.974 60.2293 203.892 60.4126 203.829C60.5993 203.766 60.8109 203.734 61.0476 203.734C61.4609 203.734 61.8243 203.829 62.1376 204.019C62.4543 204.206 62.7009 204.492 62.8776 204.879C63.0543 205.266 63.1426 205.756 63.1426 206.349C63.1426 206.942 63.0559 207.444 62.8826 207.854C62.7126 208.261 62.4659 208.571 62.1426 208.784C61.8193 208.997 61.4293 209.104 60.9726 209.104C60.7426 209.104 60.5376 209.071 60.3576 209.004C60.1809 208.941 60.0259 208.857 59.8926 208.754C59.7626 208.647 59.6526 208.534 59.5626 208.414C59.4759 208.294 59.4043 208.179 59.3476 208.069V210.614H58.4176ZM60.7976 208.384C61.2243 208.384 61.5726 208.222 61.8426 207.899C62.1126 207.572 62.2476 207.066 62.2476 206.379C62.2476 205.789 62.1243 205.321 61.8776 204.974C61.6309 204.627 61.2709 204.454 60.7976 204.454C60.3176 204.454 59.9543 204.632 59.7076 204.989C59.4609 205.342 59.3376 205.806 59.3376 206.379C59.3376 206.749 59.3926 207.086 59.5026 207.389C59.6126 207.692 59.7759 207.934 59.9926 208.114C60.2093 208.294 60.4776 208.384 60.7976 208.384ZM65.7265 209.104C65.3932 209.104 65.0982 209.046 64.8415 208.929C64.5848 208.809 64.3832 208.637 64.2365 208.414C64.0932 208.191 64.0215 207.921 64.0215 207.604C64.0215 207.031 64.2215 206.604 64.6215 206.324C65.0215 206.044 65.6632 205.894 66.5465 205.874L67.4715 205.849V205.444C67.4715 205.127 67.3765 204.877 67.1865 204.694C66.9965 204.507 66.7015 204.414 66.3015 204.414C66.0048 204.417 65.7432 204.487 65.5165 204.624C65.2932 204.761 65.1482 204.984 65.0815 205.294H64.2665C64.2865 204.957 64.3815 204.674 64.5515 204.444C64.7215 204.211 64.9582 204.034 65.2615 203.914C65.5682 203.794 65.9298 203.734 66.3465 203.734C66.7965 203.734 67.1698 203.797 67.4665 203.924C67.7665 204.051 67.9898 204.237 68.1365 204.484C68.2865 204.731 68.3615 205.034 68.3615 205.394V209.004H67.5715L67.5065 208.034C67.3065 208.437 67.0515 208.717 66.7415 208.874C66.4348 209.027 66.0965 209.104 65.7265 209.104ZM66.0065 208.439C66.1798 208.439 66.3515 208.407 66.5215 208.344C66.6948 208.281 66.8532 208.196 66.9965 208.089C67.1398 207.979 67.2532 207.857 67.3365 207.724C67.4232 207.587 67.4682 207.447 67.4715 207.304V206.419L66.7015 206.434C66.3082 206.441 65.9782 206.481 65.7115 206.554C65.4482 206.627 65.2498 206.742 65.1165 206.899C64.9865 207.056 64.9215 207.261 64.9215 207.514C64.9215 207.804 65.0215 208.031 65.2215 208.194C65.4248 208.357 65.6865 208.439 66.0065 208.439ZM70.285 210.654C69.9817 210.654 69.7733 210.632 69.66 210.589C69.5467 210.546 69.49 210.524 69.49 210.524V209.924L70.015 209.934C70.2083 209.941 70.3683 209.927 70.495 209.894C70.6217 209.861 70.7233 209.816 70.8 209.759C70.8767 209.702 70.935 209.639 70.975 209.569C71.0183 209.499 71.0533 209.432 71.08 209.369L71.26 208.879L69.24 203.834H70.175L71.7 207.824L73.215 203.834H74.12L71.94 209.394C71.8067 209.721 71.6567 209.976 71.49 210.159C71.3267 210.342 71.1433 210.471 70.94 210.544C70.74 210.617 70.5217 210.654 70.285 210.654ZM75.107 209.004V203.834H75.997V204.584C76.1404 204.357 76.337 204.159 76.587 203.989C76.837 203.819 77.162 203.734 77.562 203.734C77.7487 203.734 77.9387 203.766 78.132 203.829C78.3287 203.892 78.5087 203.987 78.672 204.114C78.8354 204.241 78.962 204.396 79.052 204.579C79.212 204.326 79.4287 204.122 79.702 203.969C79.9754 203.812 80.2837 203.734 80.627 203.734C80.807 203.734 80.9954 203.762 81.192 203.819C81.3887 203.872 81.5704 203.969 81.737 204.109C81.907 204.246 82.0454 204.437 82.152 204.684C82.2587 204.927 82.312 205.241 82.312 205.624V209.004H81.382V205.714C81.382 205.401 81.332 205.159 81.232 204.989C81.132 204.816 81.0004 204.694 80.837 204.624C80.677 204.554 80.5054 204.519 80.322 204.519C80.162 204.519 79.992 204.551 79.812 204.614C79.632 204.677 79.4787 204.784 79.352 204.934C79.2254 205.084 79.162 205.289 79.162 205.549V209.004H78.242V205.444C78.242 205.241 78.187 205.071 78.077 204.934C77.9704 204.797 77.8354 204.694 77.672 204.624C77.512 204.554 77.352 204.519 77.192 204.519C77.0154 204.519 76.837 204.554 76.657 204.624C76.4804 204.694 76.3304 204.806 76.207 204.959C76.087 205.109 76.027 205.306 76.027 205.549V209.004H75.107ZM84.4194 206.634C84.4194 206.961 84.4727 207.257 84.5794 207.524C84.6894 207.787 84.8544 207.997 85.0744 208.154C85.2977 208.311 85.5761 208.389 85.9094 208.389C86.2394 208.389 86.5227 208.312 86.7594 208.159C86.9994 208.006 87.1527 207.784 87.2194 207.494H88.0944C88.0311 207.844 87.8911 208.139 87.6744 208.379C87.4577 208.619 87.1961 208.801 86.8894 208.924C86.5827 209.044 86.2627 209.104 85.9294 209.104C85.4461 209.104 85.0211 208.999 84.6544 208.789C84.2877 208.579 84.0011 208.277 83.7944 207.884C83.5877 207.491 83.4844 207.019 83.4844 206.469C83.4844 205.926 83.5777 205.449 83.7644 205.039C83.9511 204.629 84.2211 204.309 84.5744 204.079C84.9311 203.849 85.3594 203.734 85.8594 203.734C86.3461 203.734 86.7577 203.839 87.0944 204.049C87.4311 204.259 87.6861 204.556 87.8594 204.939C88.0361 205.319 88.1244 205.771 88.1244 206.294V206.634H84.4194ZM84.4244 206.009H87.2344C87.2344 205.712 87.1844 205.446 87.0844 205.209C86.9844 204.969 86.8311 204.781 86.6244 204.644C86.4211 204.504 86.1644 204.434 85.8544 204.434C85.5311 204.434 85.2627 204.512 85.0494 204.669C84.8394 204.822 84.6811 205.021 84.5744 205.264C84.4711 205.504 84.4211 205.752 84.4244 206.009ZM89.3942 209.004V203.834H90.2892V204.584C90.3725 204.441 90.4875 204.306 90.6342 204.179C90.7842 204.052 90.9642 203.951 91.1742 203.874C91.3875 203.797 91.6325 203.759 91.9092 203.759C92.2358 203.759 92.5358 203.824 92.8092 203.954C93.0858 204.084 93.3058 204.287 93.4692 204.564C93.6358 204.837 93.7192 205.191 93.7192 205.624V209.004H92.7942V205.714C92.7942 205.311 92.6875 205.012 92.4742 204.819C92.2642 204.622 91.9908 204.524 91.6542 204.524C91.4208 204.524 91.2025 204.562 90.9992 204.639C90.7958 204.712 90.6308 204.826 90.5042 204.979C90.3775 205.129 90.3142 205.319 90.3142 205.549V209.004H89.3942ZM97.5481 204.509H96.3831V207.724C96.3831 207.907 96.4015 208.042 96.4381 208.129C96.4781 208.212 96.5431 208.266 96.6331 208.289C96.7265 208.312 96.8531 208.324 97.0131 208.324H97.5781V208.944C97.5148 208.967 97.4181 208.987 97.2881 209.004C97.1615 209.021 97.0031 209.029 96.8131 209.029C96.4565 209.029 96.1798 208.981 95.9831 208.884C95.7865 208.787 95.6481 208.644 95.5681 208.454C95.4915 208.264 95.4531 208.031 95.4531 207.754V204.509H94.6131V203.834H95.4781L95.7031 202.329H96.3831V203.829H97.5481V204.509ZM101.181 209.004V201.574H102.081V204.594C102.168 204.451 102.285 204.317 102.431 204.194C102.578 204.067 102.756 203.966 102.966 203.889C103.176 203.809 103.42 203.769 103.696 203.769C104.033 203.769 104.338 203.832 104.611 203.959C104.885 204.082 105.101 204.259 105.261 204.489C105.421 204.719 105.501 204.992 105.501 205.309V209.004H104.576V205.494C104.576 205.184 104.47 204.946 104.256 204.779C104.046 204.609 103.771 204.524 103.431 204.524C103.201 204.524 102.985 204.562 102.781 204.639C102.578 204.712 102.413 204.826 102.286 204.979C102.163 205.129 102.101 205.321 102.101 205.554V209.004H101.181ZM108.353 209.104C108.02 209.104 107.725 209.046 107.468 208.929C107.212 208.809 107.01 208.637 106.863 208.414C106.72 208.191 106.648 207.921 106.648 207.604C106.648 207.031 106.848 206.604 107.248 206.324C107.648 206.044 108.29 205.894 109.173 205.874L110.098 205.849V205.444C110.098 205.127 110.003 204.877 109.813 204.694C109.623 204.507 109.328 204.414 108.928 204.414C108.632 204.417 108.37 204.487 108.143 204.624C107.92 204.761 107.775 204.984 107.708 205.294H106.893C106.913 204.957 107.008 204.674 107.178 204.444C107.348 204.211 107.585 204.034 107.888 203.914C108.195 203.794 108.557 203.734 108.973 203.734C109.423 203.734 109.797 203.797 110.093 203.924C110.393 204.051 110.617 204.237 110.763 204.484C110.913 204.731 110.988 205.034 110.988 205.394V209.004H110.198L110.133 208.034C109.933 208.437 109.678 208.717 109.368 208.874C109.062 209.027 108.723 209.104 108.353 209.104ZM108.633 208.439C108.807 208.439 108.978 208.407 109.148 208.344C109.322 208.281 109.48 208.196 109.623 208.089C109.767 207.979 109.88 207.857 109.963 207.724C110.05 207.587 110.095 207.447 110.098 207.304V206.419L109.328 206.434C108.935 206.441 108.605 206.481 108.338 206.554C108.075 206.627 107.877 206.742 107.743 206.899C107.613 207.056 107.548 207.261 107.548 207.514C107.548 207.804 107.648 208.031 107.848 208.194C108.052 208.357 108.313 208.439 108.633 208.439ZM114.325 209.104C113.965 209.104 113.63 209.049 113.32 208.939C113.013 208.826 112.758 208.651 112.555 208.414C112.352 208.174 112.223 207.869 112.17 207.499H113.01C113.057 207.702 113.14 207.872 113.26 208.009C113.383 208.142 113.537 208.244 113.72 208.314C113.903 208.381 114.103 208.414 114.32 208.414C114.667 208.414 114.947 208.349 115.16 208.219C115.373 208.089 115.48 207.889 115.48 207.619C115.48 207.429 115.423 207.277 115.31 207.164C115.2 207.047 115.028 206.962 114.795 206.909L113.725 206.644C113.308 206.544 112.975 206.387 112.725 206.174C112.475 205.961 112.35 205.662 112.35 205.279C112.347 204.976 112.418 204.709 112.565 204.479C112.712 204.249 112.932 204.067 113.225 203.934C113.518 203.801 113.883 203.734 114.32 203.734C114.88 203.734 115.332 203.861 115.675 204.114C116.022 204.364 116.202 204.732 116.215 205.219H115.4C115.367 204.972 115.255 204.777 115.065 204.634C114.878 204.487 114.627 204.414 114.31 204.414C113.98 204.414 113.712 204.481 113.505 204.614C113.298 204.744 113.195 204.947 113.195 205.224C113.195 205.407 113.268 205.552 113.415 205.659C113.562 205.762 113.778 205.849 114.065 205.919L115.1 206.179C115.34 206.242 115.537 206.326 115.69 206.429C115.847 206.532 115.97 206.647 116.06 206.774C116.153 206.901 116.218 207.034 116.255 207.174C116.295 207.311 116.315 207.442 116.315 207.569C116.315 207.886 116.235 208.159 116.075 208.389C115.918 208.616 115.692 208.792 115.395 208.919C115.102 209.042 114.745 209.104 114.325 209.104ZM122.428 209.104C122.124 209.104 121.868 209.064 121.658 208.984C121.451 208.904 121.281 208.802 121.148 208.679C121.014 208.552 120.911 208.424 120.838 208.294C120.764 208.161 120.711 208.044 120.678 207.944L120.578 209.004H119.873V201.574H120.803V204.654C120.846 204.567 120.911 204.472 120.998 204.369C121.088 204.266 121.203 204.166 121.343 204.069C121.483 203.972 121.648 203.892 121.838 203.829C122.031 203.766 122.251 203.734 122.498 203.734C123.144 203.734 123.658 203.959 124.038 204.409C124.421 204.859 124.613 205.522 124.613 206.399C124.613 206.942 124.531 207.417 124.368 207.824C124.204 208.227 123.961 208.542 123.638 208.769C123.314 208.992 122.911 209.104 122.428 209.104ZM122.263 208.394C122.683 208.394 123.024 208.232 123.288 207.909C123.551 207.582 123.683 207.064 123.683 206.354C123.683 205.751 123.559 205.284 123.313 204.954C123.069 204.621 122.713 204.454 122.243 204.454C121.899 204.454 121.623 204.529 121.413 204.679C121.206 204.826 121.053 205.041 120.953 205.324C120.856 205.607 120.806 205.951 120.803 206.354C120.803 207.077 120.914 207.599 121.138 207.919C121.364 208.236 121.739 208.394 122.263 208.394ZM126.48 206.634C126.48 206.961 126.533 207.257 126.64 207.524C126.75 207.787 126.915 207.997 127.135 208.154C127.358 208.311 127.637 208.389 127.97 208.389C128.3 208.389 128.583 208.312 128.82 208.159C129.06 208.006 129.213 207.784 129.28 207.494H130.155C130.092 207.844 129.952 208.139 129.735 208.379C129.518 208.619 129.257 208.801 128.95 208.924C128.643 209.044 128.323 209.104 127.99 209.104C127.507 209.104 127.082 208.999 126.715 208.789C126.348 208.579 126.062 208.277 125.855 207.884C125.648 207.491 125.545 207.019 125.545 206.469C125.545 205.926 125.638 205.449 125.825 205.039C126.012 204.629 126.282 204.309 126.635 204.079C126.992 203.849 127.42 203.734 127.92 203.734C128.407 203.734 128.818 203.839 129.155 204.049C129.492 204.259 129.747 204.556 129.92 204.939C130.097 205.319 130.185 205.771 130.185 206.294V206.634H126.48ZM126.485 206.009H129.295C129.295 205.712 129.245 205.446 129.145 205.209C129.045 204.969 128.892 204.781 128.685 204.644C128.482 204.504 128.225 204.434 127.915 204.434C127.592 204.434 127.323 204.512 127.11 204.669C126.9 204.822 126.742 205.021 126.635 205.264C126.532 205.504 126.482 205.752 126.485 206.009ZM132.115 206.634C132.115 206.961 132.168 207.257 132.275 207.524C132.385 207.787 132.55 207.997 132.77 208.154C132.993 208.311 133.271 208.389 133.605 208.389C133.935 208.389 134.218 208.312 134.455 208.159C134.695 208.006 134.848 207.784 134.915 207.494H135.79C135.726 207.844 135.586 208.139 135.37 208.379C135.153 208.619 134.891 208.801 134.585 208.924C134.278 209.044 133.958 209.104 133.625 209.104C133.141 209.104 132.716 208.999 132.35 208.789C131.983 208.579 131.696 208.277 131.49 207.884C131.283 207.491 131.18 207.019 131.18 206.469C131.18 205.926 131.273 205.449 131.46 205.039C131.646 204.629 131.916 204.309 132.27 204.079C132.626 203.849 133.055 203.734 133.555 203.734C134.041 203.734 134.453 203.839 134.79 204.049C135.126 204.259 135.381 204.556 135.555 204.939C135.731 205.319 135.82 205.771 135.82 206.294V206.634H132.115ZM132.12 206.009H134.93C134.93 205.712 134.88 205.446 134.78 205.209C134.68 204.969 134.526 204.781 134.32 204.644C134.116 204.504 133.86 204.434 133.55 204.434C133.226 204.434 132.958 204.512 132.745 204.669C132.535 204.822 132.376 205.021 132.27 205.264C132.166 205.504 132.116 205.752 132.12 206.009ZM137.089 209.004V203.834H137.984V204.584C138.068 204.441 138.183 204.306 138.329 204.179C138.479 204.052 138.659 203.951 138.869 203.874C139.083 203.797 139.328 203.759 139.604 203.759C139.931 203.759 140.231 203.824 140.504 203.954C140.781 204.084 141.001 204.287 141.164 204.564C141.331 204.837 141.414 205.191 141.414 205.624V209.004H140.489V205.714C140.489 205.311 140.383 205.012 140.169 204.819C139.959 204.622 139.686 204.524 139.349 204.524C139.116 204.524 138.898 204.562 138.694 204.639C138.491 204.712 138.326 204.826 138.199 204.979C138.073 205.129 138.009 205.319 138.009 205.549V209.004H137.089ZM145.166 210.614V203.834H146.086L146.096 204.734C146.156 204.627 146.232 204.516 146.326 204.399C146.422 204.282 146.539 204.174 146.676 204.074C146.816 203.974 146.977 203.892 147.161 203.829C147.347 203.766 147.559 203.734 147.796 203.734C148.209 203.734 148.572 203.829 148.886 204.019C149.202 204.206 149.449 204.492 149.626 204.879C149.802 205.266 149.891 205.756 149.891 206.349C149.891 206.942 149.804 207.444 149.631 207.854C149.461 208.261 149.214 208.571 148.891 208.784C148.567 208.997 148.177 209.104 147.721 209.104C147.491 209.104 147.286 209.071 147.106 209.004C146.929 208.941 146.774 208.857 146.641 208.754C146.511 208.647 146.401 208.534 146.311 208.414C146.224 208.294 146.152 208.179 146.096 208.069V210.614H145.166ZM147.546 208.384C147.972 208.384 148.321 208.222 148.591 207.899C148.861 207.572 148.996 207.066 148.996 206.379C148.996 205.789 148.872 205.321 148.626 204.974C148.379 204.627 148.019 204.454 147.546 204.454C147.066 204.454 146.702 204.632 146.456 204.989C146.209 205.342 146.086 205.806 146.086 206.379C146.086 206.749 146.141 207.086 146.251 207.389C146.361 207.692 146.524 207.934 146.741 208.114C146.957 208.294 147.226 208.384 147.546 208.384ZM151.103 209.004V203.834H151.983V204.829C152.07 204.582 152.191 204.379 152.348 204.219C152.505 204.056 152.683 203.934 152.883 203.854C153.086 203.774 153.296 203.734 153.513 203.734C153.59 203.734 153.665 203.739 153.738 203.749C153.811 203.759 153.868 203.776 153.908 203.799V204.694C153.858 204.671 153.793 204.656 153.713 204.649C153.636 204.639 153.571 204.634 153.518 204.634C153.311 204.621 153.118 204.634 152.938 204.674C152.758 204.711 152.6 204.776 152.463 204.869C152.326 204.962 152.218 205.086 152.138 205.239C152.061 205.389 152.023 205.572 152.023 205.789V209.004H151.103ZM156.928 209.104C156.451 209.104 156.034 209.002 155.678 208.799C155.321 208.592 155.044 208.291 154.848 207.894C154.651 207.497 154.553 207.012 154.553 206.439C154.553 205.899 154.644 205.426 154.828 205.019C155.011 204.612 155.279 204.297 155.633 204.074C155.989 203.847 156.421 203.734 156.928 203.734C157.404 203.734 157.818 203.839 158.168 204.049C158.521 204.256 158.794 204.561 158.988 204.964C159.181 205.367 159.278 205.859 159.278 206.439C159.278 206.966 159.188 207.429 159.008 207.829C158.831 208.229 158.568 208.542 158.218 208.769C157.871 208.992 157.441 209.104 156.928 209.104ZM156.928 208.374C157.238 208.374 157.499 208.296 157.713 208.139C157.926 207.982 158.088 207.757 158.198 207.464C158.308 207.171 158.363 206.822 158.363 206.419C158.363 206.049 158.314 205.717 158.218 205.424C158.121 205.127 157.966 204.892 157.753 204.719C157.543 204.546 157.268 204.459 156.928 204.459C156.614 204.459 156.349 204.537 156.133 204.694C155.916 204.847 155.751 205.071 155.638 205.364C155.528 205.657 155.473 206.009 155.473 206.419C155.473 206.782 155.523 207.112 155.623 207.409C155.723 207.706 155.879 207.941 156.093 208.114C156.306 208.287 156.584 208.374 156.928 208.374ZM162.548 203.734C162.918 203.734 163.251 203.806 163.548 203.949C163.845 204.089 164.086 204.289 164.273 204.549C164.463 204.809 164.581 205.116 164.628 205.469H163.808C163.778 205.289 163.708 205.124 163.598 204.974C163.491 204.824 163.35 204.704 163.173 204.614C162.996 204.524 162.79 204.479 162.553 204.479C162.11 204.479 161.75 204.639 161.473 204.959C161.196 205.279 161.058 205.769 161.058 206.429C161.058 207.026 161.185 207.504 161.438 207.864C161.695 208.221 162.071 208.399 162.568 208.399C162.805 208.399 163.01 208.354 163.183 208.264C163.36 208.171 163.501 208.049 163.608 207.899C163.715 207.746 163.783 207.582 163.813 207.409H164.618C164.575 207.756 164.458 208.056 164.268 208.309C164.078 208.562 163.835 208.759 163.538 208.899C163.245 209.036 162.915 209.104 162.548 209.104C162.085 209.104 161.673 209.002 161.313 208.799C160.956 208.596 160.676 208.296 160.473 207.899C160.27 207.502 160.168 207.016 160.168 206.439C160.168 205.899 160.26 205.427 160.443 205.024C160.63 204.617 160.9 204.301 161.253 204.074C161.61 203.847 162.041 203.734 162.548 203.734ZM166.539 206.634C166.539 206.961 166.592 207.257 166.699 207.524C166.809 207.787 166.974 207.997 167.194 208.154C167.417 208.311 167.695 208.389 168.029 208.389C168.359 208.389 168.642 208.312 168.879 208.159C169.119 208.006 169.272 207.784 169.339 207.494H170.214C170.15 207.844 170.01 208.139 169.794 208.379C169.577 208.619 169.315 208.801 169.009 208.924C168.702 209.044 168.382 209.104 168.049 209.104C167.565 209.104 167.14 208.999 166.774 208.789C166.407 208.579 166.12 208.277 165.914 207.884C165.707 207.491 165.604 207.019 165.604 206.469C165.604 205.926 165.697 205.449 165.884 205.039C166.07 204.629 166.34 204.309 166.694 204.079C167.05 203.849 167.479 203.734 167.979 203.734C168.465 203.734 168.877 203.839 169.214 204.049C169.55 204.259 169.805 204.556 169.979 204.939C170.155 205.319 170.244 205.771 170.244 206.294V206.634H166.539ZM166.544 206.009H169.354C169.354 205.712 169.304 205.446 169.204 205.209C169.104 204.969 168.95 204.781 168.744 204.644C168.54 204.504 168.284 204.434 167.974 204.434C167.65 204.434 167.382 204.512 167.169 204.669C166.959 204.822 166.8 205.021 166.694 205.264C166.59 205.504 166.54 205.752 166.544 206.009ZM173.319 209.104C172.959 209.104 172.624 209.049 172.314 208.939C172.007 208.826 171.752 208.651 171.549 208.414C171.346 208.174 171.217 207.869 171.164 207.499H172.004C172.051 207.702 172.134 207.872 172.254 208.009C172.377 208.142 172.531 208.244 172.714 208.314C172.897 208.381 173.097 208.414 173.314 208.414C173.661 208.414 173.941 208.349 174.154 208.219C174.367 208.089 174.474 207.889 174.474 207.619C174.474 207.429 174.417 207.277 174.304 207.164C174.194 207.047 174.022 206.962 173.789 206.909L172.719 206.644C172.302 206.544 171.969 206.387 171.719 206.174C171.469 205.961 171.344 205.662 171.344 205.279C171.341 204.976 171.412 204.709 171.559 204.479C171.706 204.249 171.926 204.067 172.219 203.934C172.512 203.801 172.877 203.734 173.314 203.734C173.874 203.734 174.326 203.861 174.669 204.114C175.016 204.364 175.196 204.732 175.209 205.219H174.394C174.361 204.972 174.249 204.777 174.059 204.634C173.872 204.487 173.621 204.414 173.304 204.414C172.974 204.414 172.706 204.481 172.499 204.614C172.292 204.744 172.189 204.947 172.189 205.224C172.189 205.407 172.262 205.552 172.409 205.659C172.556 205.762 172.772 205.849 173.059 205.919L174.094 206.179C174.334 206.242 174.531 206.326 174.684 206.429C174.841 206.532 174.964 206.647 175.054 206.774C175.147 206.901 175.212 207.034 175.249 207.174C175.289 207.311 175.309 207.442 175.309 207.569C175.309 207.886 175.229 208.159 175.069 208.389C174.912 208.616 174.686 208.792 174.389 208.919C174.096 209.042 173.739 209.104 173.319 209.104ZM178.358 209.104C177.998 209.104 177.663 209.049 177.353 208.939C177.046 208.826 176.791 208.651 176.588 208.414C176.385 208.174 176.256 207.869 176.203 207.499H177.043C177.09 207.702 177.173 207.872 177.293 208.009C177.416 208.142 177.57 208.244 177.753 208.314C177.936 208.381 178.136 208.414 178.353 208.414C178.7 208.414 178.98 208.349 179.193 208.219C179.406 208.089 179.513 207.889 179.513 207.619C179.513 207.429 179.456 207.277 179.343 207.164C179.233 207.047 179.061 206.962 178.828 206.909L177.758 206.644C177.341 206.544 177.008 206.387 176.758 206.174C176.508 205.961 176.383 205.662 176.383 205.279C176.38 204.976 176.451 204.709 176.598 204.479C176.745 204.249 176.965 204.067 177.258 203.934C177.551 203.801 177.916 203.734 178.353 203.734C178.913 203.734 179.365 203.861 179.708 204.114C180.055 204.364 180.235 204.732 180.248 205.219H179.433C179.4 204.972 179.288 204.777 179.098 204.634C178.911 204.487 178.66 204.414 178.343 204.414C178.013 204.414 177.745 204.481 177.538 204.614C177.331 204.744 177.228 204.947 177.228 205.224C177.228 205.407 177.301 205.552 177.448 205.659C177.595 205.762 177.811 205.849 178.098 205.919L179.133 206.179C179.373 206.242 179.57 206.326 179.723 206.429C179.88 206.532 180.003 206.647 180.093 206.774C180.186 206.901 180.251 207.034 180.288 207.174C180.328 207.311 180.348 207.442 180.348 207.569C180.348 207.886 180.268 208.159 180.108 208.389C179.951 208.616 179.725 208.792 179.428 208.919C179.135 209.042 178.778 209.104 178.358 209.104ZM182.3 206.634C182.3 206.961 182.354 207.257 182.46 207.524C182.57 207.787 182.735 207.997 182.955 208.154C183.179 208.311 183.457 208.389 183.79 208.389C184.12 208.389 184.404 208.312 184.64 208.159C184.88 208.006 185.034 207.784 185.1 207.494H185.975C185.912 207.844 185.772 208.139 185.555 208.379C185.339 208.619 185.077 208.801 184.77 208.924C184.464 209.044 184.144 209.104 183.81 209.104C183.327 209.104 182.902 208.999 182.535 208.789C182.169 208.579 181.882 208.277 181.675 207.884C181.469 207.491 181.365 207.019 181.365 206.469C181.365 205.926 181.459 205.449 181.645 205.039C181.832 204.629 182.102 204.309 182.455 204.079C182.812 203.849 183.24 203.734 183.74 203.734C184.227 203.734 184.639 203.839 184.975 204.049C185.312 204.259 185.567 204.556 185.74 204.939C185.917 205.319 186.005 205.771 186.005 206.294V206.634H182.3ZM182.305 206.009H185.115C185.115 205.712 185.065 205.446 184.965 205.209C184.865 204.969 184.712 204.781 184.505 204.644C184.302 204.504 184.045 204.434 183.735 204.434C183.412 204.434 183.144 204.512 182.93 204.669C182.72 204.822 182.562 205.021 182.455 205.264C182.352 205.504 182.302 205.752 182.305 206.009ZM189.14 209.104C188.47 209.104 187.938 208.874 187.545 208.414C187.152 207.954 186.955 207.282 186.955 206.399C186.955 205.862 187.033 205.394 187.19 204.994C187.35 204.594 187.587 204.284 187.9 204.064C188.213 203.844 188.603 203.734 189.07 203.734C189.317 203.734 189.535 203.766 189.725 203.829C189.918 203.892 190.085 203.972 190.225 204.069C190.365 204.166 190.478 204.266 190.565 204.369C190.655 204.472 190.722 204.567 190.765 204.654V201.574H191.695V209.004H190.99L190.89 207.944C190.857 208.044 190.803 208.161 190.73 208.294C190.657 208.424 190.553 208.552 190.42 208.679C190.287 208.802 190.115 208.904 189.905 208.984C189.698 209.064 189.443 209.104 189.14 209.104ZM189.305 208.394C189.828 208.394 190.202 208.236 190.425 207.919C190.652 207.599 190.765 207.077 190.765 206.354C190.762 205.951 190.71 205.607 190.61 205.324C190.513 205.041 190.36 204.826 190.15 204.679C189.943 204.529 189.668 204.454 189.325 204.454C188.898 204.454 188.552 204.606 188.285 204.909C188.018 205.212 187.885 205.694 187.885 206.354C187.885 207.001 188.005 207.502 188.245 207.859C188.488 208.216 188.842 208.394 189.305 208.394ZM193.007 209.004V207.824H194.107V209.004H193.007ZM197.189 202.624V201.774H202.659V202.624H200.454V209.004H199.524V202.624H197.189ZM203.662 209.004V201.574H204.562V204.594C204.648 204.451 204.765 204.317 204.912 204.194C205.058 204.067 205.237 203.966 205.447 203.889C205.657 203.809 205.9 203.769 206.177 203.769C206.513 203.769 206.818 203.832 207.092 203.959C207.365 204.082 207.582 204.259 207.742 204.489C207.902 204.719 207.982 204.992 207.982 205.309V209.004H207.057V205.494C207.057 205.184 206.95 204.946 206.737 204.779C206.527 204.609 206.252 204.524 205.912 204.524C205.682 204.524 205.465 204.562 205.262 204.639C205.058 204.712 204.893 204.826 204.767 204.979C204.643 205.129 204.582 205.321 204.582 205.554V209.004H203.662ZM210.083 206.634C210.083 206.961 210.137 207.257 210.243 207.524C210.353 207.787 210.518 207.997 210.738 208.154C210.962 208.311 211.24 208.389 211.573 208.389C211.903 208.389 212.187 208.312 212.423 208.159C212.663 208.006 212.817 207.784 212.883 207.494H213.758C213.695 207.844 213.555 208.139 213.338 208.379C213.122 208.619 212.86 208.801 212.553 208.924C212.247 209.044 211.927 209.104 211.593 209.104C211.11 209.104 210.685 208.999 210.318 208.789C209.952 208.579 209.665 208.277 209.458 207.884C209.252 207.491 209.148 207.019 209.148 206.469C209.148 205.926 209.242 205.449 209.428 205.039C209.615 204.629 209.885 204.309 210.238 204.079C210.595 203.849 211.023 203.734 211.523 203.734C212.01 203.734 212.422 203.839 212.758 204.049C213.095 204.259 213.35 204.556 213.523 204.939C213.7 205.319 213.788 205.771 213.788 206.294V206.634H210.083ZM210.088 206.009H212.898C212.898 205.712 212.848 205.446 212.748 205.209C212.648 204.969 212.495 204.781 212.288 204.644C212.085 204.504 211.828 204.434 211.518 204.434C211.195 204.434 210.927 204.512 210.713 204.669C210.503 204.822 210.345 205.021 210.238 205.264C210.135 205.504 210.085 205.752 210.088 206.009ZM41.5325 218.509H40.3675V221.724C40.3675 221.907 40.3858 222.042 40.4225 222.129C40.4625 222.212 40.5275 222.266 40.6175 222.289C40.7108 222.312 40.8375 222.324 40.9975 222.324H41.5625V222.944C41.4992 222.967 41.4025 222.987 41.2725 223.004C41.1458 223.021 40.9875 223.029 40.7975 223.029C40.4408 223.029 40.1642 222.981 39.9675 222.884C39.7708 222.787 39.6325 222.644 39.5525 222.454C39.4758 222.264 39.4375 222.031 39.4375 221.754V218.509H38.5975V217.834H39.4625L39.6875 216.329H40.3675V217.829H41.5325V218.509ZM44.7792 223.104C44.3026 223.104 43.8859 223.002 43.5292 222.799C43.1726 222.592 42.8959 222.291 42.6992 221.894C42.5026 221.497 42.4042 221.012 42.4042 220.439C42.4042 219.899 42.4959 219.426 42.6792 219.019C42.8626 218.612 43.1309 218.297 43.4842 218.074C43.8409 217.847 44.2726 217.734 44.7792 217.734C45.2559 217.734 45.6692 217.839 46.0192 218.049C46.3726 218.256 46.6459 218.561 46.8392 218.964C47.0326 219.367 47.1292 219.859 47.1292 220.439C47.1292 220.966 47.0392 221.429 46.8592 221.829C46.6826 222.229 46.4192 222.542 46.0692 222.769C45.7226 222.992 45.2926 223.104 44.7792 223.104ZM44.7792 222.374C45.0892 222.374 45.3509 222.296 45.5642 222.139C45.7776 221.982 45.9392 221.757 46.0492 221.464C46.1592 221.171 46.2142 220.822 46.2142 220.419C46.2142 220.049 46.1659 219.717 46.0692 219.424C45.9726 219.127 45.8176 218.892 45.6042 218.719C45.3942 218.546 45.1192 218.459 44.7792 218.459C44.4659 218.459 44.2009 218.537 43.9842 218.694C43.7676 218.847 43.6026 219.071 43.4892 219.364C43.3792 219.657 43.3242 220.009 43.3242 220.419C43.3242 220.782 43.3742 221.112 43.4742 221.409C43.5742 221.706 43.7309 221.941 43.9442 222.114C44.1576 222.287 44.4359 222.374 44.7792 222.374ZM50.8001 218.509H49.6351V221.724C49.6351 221.907 49.6534 222.042 49.6901 222.129C49.7301 222.212 49.7951 222.266 49.8851 222.289C49.9784 222.312 50.1051 222.324 50.2651 222.324H50.8301V222.944C50.7668 222.967 50.6701 222.987 50.5401 223.004C50.4134 223.021 50.2551 223.029 50.0651 223.029C49.7084 223.029 49.4318 222.981 49.2351 222.884C49.0384 222.787 48.9001 222.644 48.8201 222.454C48.7434 222.264 48.7051 222.031 48.7051 221.754V218.509H47.8651V217.834H48.7301L48.9551 216.329H49.6351V217.829H50.8001V218.509ZM53.5292 223.104C53.1959 223.104 52.9009 223.046 52.6442 222.929C52.3876 222.809 52.1859 222.637 52.0392 222.414C51.8959 222.191 51.8242 221.921 51.8242 221.604C51.8242 221.031 52.0242 220.604 52.4242 220.324C52.8242 220.044 53.4659 219.894 54.3492 219.874L55.2742 219.849V219.444C55.2742 219.127 55.1792 218.877 54.9892 218.694C54.7992 218.507 54.5042 218.414 54.1042 218.414C53.8076 218.417 53.5459 218.487 53.3192 218.624C53.0959 218.761 52.9509 218.984 52.8842 219.294H52.0692C52.0892 218.957 52.1842 218.674 52.3542 218.444C52.5242 218.211 52.7609 218.034 53.0642 217.914C53.3709 217.794 53.7326 217.734 54.1492 217.734C54.5992 217.734 54.9726 217.797 55.2692 217.924C55.5692 218.051 55.7926 218.237 55.9392 218.484C56.0892 218.731 56.1642 219.034 56.1642 219.394V223.004H55.3742L55.3092 222.034C55.1092 222.437 54.8542 222.717 54.5442 222.874C54.2376 223.027 53.8992 223.104 53.5292 223.104ZM53.8092 222.439C53.9826 222.439 54.1542 222.407 54.3242 222.344C54.4976 222.281 54.6559 222.196 54.7992 222.089C54.9426 221.979 55.0559 221.857 55.1392 221.724C55.2259 221.587 55.2709 221.447 55.2742 221.304V220.419L54.5042 220.434C54.1109 220.441 53.7809 220.481 53.5142 220.554C53.2509 220.627 53.0526 220.742 52.9192 220.899C52.7892 221.056 52.7242 221.261 52.7242 221.514C52.7242 221.804 52.8242 222.031 53.0242 222.194C53.2276 222.357 53.4892 222.439 53.8092 222.439ZM59.0488 223.069C58.7688 223.069 58.5421 223.031 58.3688 222.954C58.1988 222.877 58.0671 222.774 57.9738 222.644C57.8838 222.514 57.8221 222.366 57.7888 222.199C57.7588 222.029 57.7438 221.854 57.7438 221.674V215.574H58.6538V221.584C58.6538 221.844 58.7038 222.039 58.8038 222.169C58.9071 222.299 59.0504 222.371 59.2338 222.384L59.5138 222.389V222.989C59.4371 223.012 59.3571 223.031 59.2738 223.044C59.1904 223.061 59.1154 223.069 59.0488 223.069ZM64.457 223.104C64.1236 223.104 63.8286 223.046 63.572 222.929C63.3153 222.809 63.1136 222.637 62.967 222.414C62.8236 222.191 62.752 221.921 62.752 221.604C62.752 221.031 62.952 220.604 63.352 220.324C63.752 220.044 64.3936 219.894 65.277 219.874L66.202 219.849V219.444C66.202 219.127 66.107 218.877 65.917 218.694C65.727 218.507 65.432 218.414 65.032 218.414C64.7353 218.417 64.4736 218.487 64.247 218.624C64.0236 218.761 63.8786 218.984 63.812 219.294H62.997C63.017 218.957 63.112 218.674 63.282 218.444C63.452 218.211 63.6886 218.034 63.992 217.914C64.2986 217.794 64.6603 217.734 65.077 217.734C65.527 217.734 65.9003 217.797 66.197 217.924C66.497 218.051 66.7203 218.237 66.867 218.484C67.017 218.731 67.092 219.034 67.092 219.394V223.004H66.302L66.237 222.034C66.037 222.437 65.782 222.717 65.472 222.874C65.1653 223.027 64.827 223.104 64.457 223.104ZM64.737 222.439C64.9103 222.439 65.082 222.407 65.252 222.344C65.4253 222.281 65.5836 222.196 65.727 222.089C65.8703 221.979 65.9836 221.857 66.067 221.724C66.1536 221.587 66.1986 221.447 66.202 221.304V220.419L65.432 220.434C65.0386 220.441 64.7086 220.481 64.442 220.554C64.1786 220.627 63.9803 220.742 63.847 220.899C63.717 221.056 63.652 221.261 63.652 221.514C63.652 221.804 63.752 222.031 63.952 222.194C64.1553 222.357 64.417 222.439 64.737 222.439ZM68.6715 223.004V217.834H69.5615V218.584C69.7048 218.357 69.9015 218.159 70.1515 217.989C70.4015 217.819 70.7265 217.734 71.1265 217.734C71.3132 217.734 71.5032 217.766 71.6965 217.829C71.8932 217.892 72.0732 217.987 72.2365 218.114C72.3998 218.241 72.5265 218.396 72.6165 218.579C72.7765 218.326 72.9932 218.122 73.2665 217.969C73.5398 217.812 73.8482 217.734 74.1915 217.734C74.3715 217.734 74.5598 217.762 74.7565 217.819C74.9532 217.872 75.1348 217.969 75.3015 218.109C75.4715 218.246 75.6098 218.437 75.7165 218.684C75.8232 218.927 75.8765 219.241 75.8765 219.624V223.004H74.9465V219.714C74.9465 219.401 74.8965 219.159 74.7965 218.989C74.6965 218.816 74.5648 218.694 74.4015 218.624C74.2415 218.554 74.0698 218.519 73.8865 218.519C73.7265 218.519 73.5565 218.551 73.3765 218.614C73.1965 218.677 73.0432 218.784 72.9165 218.934C72.7898 219.084 72.7265 219.289 72.7265 219.549V223.004H71.8065V219.444C71.8065 219.241 71.7515 219.071 71.6415 218.934C71.5348 218.797 71.3998 218.694 71.2365 218.624C71.0765 218.554 70.9165 218.519 70.7565 218.519C70.5798 218.519 70.4015 218.554 70.2215 218.624C70.0448 218.694 69.8948 218.806 69.7715 218.959C69.6515 219.109 69.5915 219.306 69.5915 219.549V223.004H68.6715ZM79.3788 223.104C78.9022 223.104 78.4855 223.002 78.1288 222.799C77.7722 222.592 77.4955 222.291 77.2988 221.894C77.1022 221.497 77.0038 221.012 77.0038 220.439C77.0038 219.899 77.0955 219.426 77.2788 219.019C77.4622 218.612 77.7305 218.297 78.0838 218.074C78.4405 217.847 78.8722 217.734 79.3788 217.734C79.8555 217.734 80.2688 217.839 80.6188 218.049C80.9722 218.256 81.2455 218.561 81.4388 218.964C81.6322 219.367 81.7288 219.859 81.7288 220.439C81.7288 220.966 81.6388 221.429 81.4588 221.829C81.2822 222.229 81.0188 222.542 80.6688 222.769C80.3222 222.992 79.8922 223.104 79.3788 223.104ZM79.3788 222.374C79.6888 222.374 79.9505 222.296 80.1638 222.139C80.3772 221.982 80.5388 221.757 80.6488 221.464C80.7588 221.171 80.8138 220.822 80.8138 220.419C80.8138 220.049 80.7655 219.717 80.6688 219.424C80.5722 219.127 80.4172 218.892 80.2038 218.719C79.9938 218.546 79.7188 218.459 79.3788 218.459C79.0655 218.459 78.8005 218.537 78.5838 218.694C78.3672 218.847 78.2022 219.071 78.0888 219.364C77.9788 219.657 77.9238 220.009 77.9238 220.419C77.9238 220.782 77.9738 221.112 78.0738 221.409C78.1738 221.706 78.3305 221.941 78.5438 222.114C78.7572 222.287 79.0355 222.374 79.3788 222.374ZM84.7609 223.104C84.4909 223.101 84.2359 223.062 83.9959 222.989C83.7593 222.912 83.5493 222.801 83.3659 222.654C83.1826 222.507 83.0376 222.326 82.9309 222.109C82.8276 221.889 82.7759 221.634 82.7759 221.344V217.834H83.7009V221.249C83.7009 221.586 83.8043 221.859 84.0109 222.069C84.2209 222.279 84.5359 222.384 84.9559 222.384C85.3359 222.384 85.6409 222.286 85.8709 222.089C86.1043 221.889 86.2209 221.592 86.2209 221.199V217.834H87.1409V223.004H86.4059L86.3109 222.014C86.2476 222.274 86.1393 222.484 85.9859 222.644C85.8359 222.804 85.6543 222.922 85.4409 222.999C85.2309 223.072 85.0043 223.107 84.7609 223.104ZM88.6422 223.004V217.834H89.5372V218.584C89.6205 218.441 89.7355 218.306 89.8822 218.179C90.0322 218.052 90.2122 217.951 90.4222 217.874C90.6355 217.797 90.8805 217.759 91.1572 217.759C91.4839 217.759 91.7839 217.824 92.0572 217.954C92.3339 218.084 92.5539 218.287 92.7172 218.564C92.8839 218.837 92.9672 219.191 92.9672 219.624V223.004H92.0422V219.714C92.0422 219.311 91.9355 219.012 91.7222 218.819C91.5122 218.622 91.2389 218.524 90.9022 218.524C90.6689 218.524 90.4505 218.562 90.2472 218.639C90.0439 218.712 89.8789 218.826 89.7522 218.979C89.6255 219.129 89.5622 219.319 89.5622 219.549V223.004H88.6422ZM96.7962 218.509H95.6312V221.724C95.6312 221.907 95.6495 222.042 95.6862 222.129C95.7262 222.212 95.7912 222.266 95.8812 222.289C95.9745 222.312 96.1012 222.324 96.2612 222.324H96.8262V222.944C96.7628 222.967 96.6662 222.987 96.5362 223.004C96.4095 223.021 96.2512 223.029 96.0612 223.029C95.7045 223.029 95.4278 222.981 95.2312 222.884C95.0345 222.787 94.8962 222.644 94.8162 222.454C94.7395 222.264 94.7012 222.031 94.7012 221.754V218.509H93.8612V217.834H94.7262L94.9512 216.329H95.6312V217.829H96.7962V218.509ZM102.167 223.104C101.497 223.104 100.966 222.874 100.572 222.414C100.179 221.954 99.9824 221.282 99.9824 220.399C99.9824 219.862 100.061 219.394 100.217 218.994C100.377 218.594 100.614 218.284 100.927 218.064C101.241 217.844 101.631 217.734 102.097 217.734C102.344 217.734 102.562 217.766 102.752 217.829C102.946 217.892 103.112 217.972 103.252 218.069C103.392 218.166 103.506 218.266 103.592 218.369C103.682 218.472 103.749 218.567 103.792 218.654V215.574H104.722V223.004H104.017L103.917 221.944C103.884 222.044 103.831 222.161 103.757 222.294C103.684 222.424 103.581 222.552 103.447 222.679C103.314 222.802 103.142 222.904 102.932 222.984C102.726 223.064 102.471 223.104 102.167 223.104ZM102.332 222.394C102.856 222.394 103.229 222.236 103.452 221.919C103.679 221.599 103.792 221.077 103.792 220.354C103.789 219.951 103.737 219.607 103.637 219.324C103.541 219.041 103.387 218.826 103.177 218.679C102.971 218.529 102.696 218.454 102.352 218.454C101.926 218.454 101.579 218.606 101.312 218.909C101.046 219.212 100.912 219.694 100.912 220.354C100.912 221.001 101.032 221.502 101.272 221.859C101.516 222.216 101.869 222.394 102.332 222.394ZM106.91 220.634C106.91 220.961 106.963 221.257 107.07 221.524C107.18 221.787 107.345 221.997 107.565 222.154C107.788 222.311 108.066 222.389 108.4 222.389C108.73 222.389 109.013 222.312 109.25 222.159C109.49 222.006 109.643 221.784 109.71 221.494H110.585C110.521 221.844 110.381 222.139 110.165 222.379C109.948 222.619 109.686 222.801 109.38 222.924C109.073 223.044 108.753 223.104 108.42 223.104C107.936 223.104 107.511 222.999 107.145 222.789C106.778 222.579 106.491 222.277 106.285 221.884C106.078 221.491 105.975 221.019 105.975 220.469C105.975 219.926 106.068 219.449 106.255 219.039C106.441 218.629 106.711 218.309 107.065 218.079C107.421 217.849 107.85 217.734 108.35 217.734C108.836 217.734 109.248 217.839 109.585 218.049C109.921 218.259 110.176 218.556 110.35 218.939C110.526 219.319 110.615 219.771 110.615 220.294V220.634H106.91ZM106.915 220.009H109.725C109.725 219.712 109.675 219.446 109.575 219.209C109.475 218.969 109.321 218.781 109.115 218.644C108.911 218.504 108.655 218.434 108.345 218.434C108.021 218.434 107.753 218.512 107.54 218.669C107.33 218.822 107.171 219.021 107.065 219.264C106.961 219.504 106.911 219.752 106.915 220.009ZM113.749 223.104C113.079 223.104 112.548 222.874 112.154 222.414C111.761 221.954 111.564 221.282 111.564 220.399C111.564 219.862 111.643 219.394 111.799 218.994C111.959 218.594 112.196 218.284 112.509 218.064C112.823 217.844 113.213 217.734 113.679 217.734C113.926 217.734 114.144 217.766 114.334 217.829C114.528 217.892 114.694 217.972 114.834 218.069C114.974 218.166 115.088 218.266 115.174 218.369C115.264 218.472 115.331 218.567 115.374 218.654V215.574H116.304V223.004H115.599L115.499 221.944C115.466 222.044 115.413 222.161 115.339 222.294C115.266 222.424 115.163 222.552 115.029 222.679C114.896 222.802 114.724 222.904 114.514 222.984C114.308 223.064 114.053 223.104 113.749 223.104ZM113.914 222.394C114.438 222.394 114.811 222.236 115.034 221.919C115.261 221.599 115.374 221.077 115.374 220.354C115.371 219.951 115.319 219.607 115.219 219.324C115.123 219.041 114.969 218.826 114.759 218.679C114.553 218.529 114.278 218.454 113.934 218.454C113.508 218.454 113.161 218.606 112.894 218.909C112.628 219.212 112.494 219.694 112.494 220.354C112.494 221.001 112.614 221.502 112.854 221.859C113.098 222.216 113.451 222.394 113.914 222.394ZM119.732 223.104C119.462 223.101 119.207 223.062 118.967 222.989C118.73 222.912 118.52 222.801 118.337 222.654C118.153 222.507 118.008 222.326 117.902 222.109C117.798 221.889 117.747 221.634 117.747 221.344V217.834H118.672V221.249C118.672 221.586 118.775 221.859 118.982 222.069C119.192 222.279 119.507 222.384 119.927 222.384C120.307 222.384 120.612 222.286 120.842 222.089C121.075 221.889 121.192 221.592 121.192 221.199V217.834H122.112V223.004H121.377L121.282 222.014C121.218 222.274 121.11 222.484 120.957 222.644C120.807 222.804 120.625 222.922 120.412 222.999C120.202 223.072 119.975 223.107 119.732 223.104ZM125.614 217.734C125.984 217.734 126.318 217.806 126.614 217.949C126.911 218.089 127.153 218.289 127.339 218.549C127.529 218.809 127.648 219.116 127.694 219.469H126.874C126.844 219.289 126.774 219.124 126.664 218.974C126.558 218.824 126.416 218.704 126.239 218.614C126.063 218.524 125.856 218.479 125.619 218.479C125.176 218.479 124.816 218.639 124.539 218.959C124.263 219.279 124.124 219.769 124.124 220.429C124.124 221.026 124.251 221.504 124.504 221.864C124.761 222.221 125.138 222.399 125.634 222.399C125.871 222.399 126.076 222.354 126.249 222.264C126.426 222.171 126.568 222.049 126.674 221.899C126.781 221.746 126.849 221.582 126.879 221.409H127.684C127.641 221.756 127.524 222.056 127.334 222.309C127.144 222.562 126.901 222.759 126.604 222.899C126.311 223.036 125.981 223.104 125.614 223.104C125.151 223.104 124.739 223.002 124.379 222.799C124.023 222.596 123.743 222.296 123.539 221.899C123.336 221.502 123.234 221.016 123.234 220.439C123.234 219.899 123.326 219.427 123.509 219.024C123.696 218.617 123.966 218.301 124.319 218.074C124.676 217.847 125.108 217.734 125.614 217.734ZM131.406 218.509H130.241V221.724C130.241 221.907 130.259 222.042 130.296 222.129C130.336 222.212 130.401 222.266 130.491 222.289C130.584 222.312 130.711 222.324 130.871 222.324H131.436V222.944C131.372 222.967 131.276 222.987 131.146 223.004C131.019 223.021 130.861 223.029 130.671 223.029C130.314 223.029 130.037 222.981 129.841 222.884C129.644 222.787 129.506 222.644 129.426 222.454C129.349 222.264 129.311 222.031 129.311 221.754V218.509H128.471V217.834H129.336L129.561 216.329H130.241V217.829H131.406V218.509ZM133.257 220.634C133.257 220.961 133.311 221.257 133.417 221.524C133.527 221.787 133.692 221.997 133.912 222.154C134.136 222.311 134.414 222.389 134.747 222.389C135.077 222.389 135.361 222.312 135.597 222.159C135.837 222.006 135.991 221.784 136.057 221.494H136.932C136.869 221.844 136.729 222.139 136.512 222.379C136.296 222.619 136.034 222.801 135.727 222.924C135.421 223.044 135.101 223.104 134.767 223.104C134.284 223.104 133.859 222.999 133.492 222.789C133.126 222.579 132.839 222.277 132.632 221.884C132.426 221.491 132.322 221.019 132.322 220.469C132.322 219.926 132.416 219.449 132.602 219.039C132.789 218.629 133.059 218.309 133.412 218.079C133.769 217.849 134.197 217.734 134.697 217.734C135.184 217.734 135.596 217.839 135.932 218.049C136.269 218.259 136.524 218.556 136.697 218.939C136.874 219.319 136.962 219.771 136.962 220.294V220.634H133.257ZM133.262 220.009H136.072C136.072 219.712 136.022 219.446 135.922 219.209C135.822 218.969 135.669 218.781 135.462 218.644C135.259 218.504 135.002 218.434 134.692 218.434C134.369 218.434 134.101 218.512 133.887 218.669C133.677 218.822 133.519 219.021 133.412 219.264C133.309 219.504 133.259 219.752 133.262 220.009ZM140.097 223.104C139.427 223.104 138.895 222.874 138.502 222.414C138.109 221.954 137.912 221.282 137.912 220.399C137.912 219.862 137.99 219.394 138.147 218.994C138.307 218.594 138.544 218.284 138.857 218.064C139.17 217.844 139.56 217.734 140.027 217.734C140.274 217.734 140.492 217.766 140.682 217.829C140.875 217.892 141.042 217.972 141.182 218.069C141.322 218.166 141.435 218.266 141.522 218.369C141.612 218.472 141.679 218.567 141.722 218.654V215.574H142.652V223.004H141.947L141.847 221.944C141.814 222.044 141.76 222.161 141.687 222.294C141.614 222.424 141.51 222.552 141.377 222.679C141.244 222.802 141.072 222.904 140.862 222.984C140.655 223.064 140.4 223.104 140.097 223.104ZM140.262 222.394C140.785 222.394 141.159 222.236 141.382 221.919C141.609 221.599 141.722 221.077 141.722 220.354C141.719 219.951 141.667 219.607 141.567 219.324C141.47 219.041 141.317 218.826 141.107 218.679C140.9 218.529 140.625 218.454 140.282 218.454C139.855 218.454 139.509 218.606 139.242 218.909C138.975 219.212 138.842 219.694 138.842 220.354C138.842 221.001 138.962 221.502 139.202 221.859C139.445 222.216 139.799 222.394 140.262 222.394ZM149.404 217.834V218.509H148.149V223.004H147.219V218.509H146.129V217.834H147.219V217.034C147.219 216.624 147.324 216.312 147.534 216.099C147.744 215.882 148.057 215.774 148.474 215.774H149.449L149.454 216.429H148.679C148.469 216.429 148.326 216.486 148.249 216.599C148.172 216.712 148.134 216.884 148.134 217.114V217.834H149.404ZM150.546 223.004V217.834H151.426V218.829C151.513 218.582 151.635 218.379 151.791 218.219C151.948 218.056 152.126 217.934 152.326 217.854C152.53 217.774 152.74 217.734 152.956 217.734C153.033 217.734 153.108 217.739 153.181 217.749C153.255 217.759 153.311 217.776 153.351 217.799V218.694C153.301 218.671 153.236 218.656 153.156 218.649C153.08 218.639 153.015 218.634 152.961 218.634C152.755 218.621 152.561 218.634 152.381 218.674C152.201 218.711 152.043 218.776 151.906 218.869C151.77 218.962 151.661 219.086 151.581 219.239C151.505 219.389 151.466 219.572 151.466 219.789V223.004H150.546ZM156.371 223.104C155.894 223.104 155.478 223.002 155.121 222.799C154.764 222.592 154.488 222.291 154.291 221.894C154.094 221.497 153.996 221.012 153.996 220.439C153.996 219.899 154.088 219.426 154.271 219.019C154.454 218.612 154.723 218.297 155.076 218.074C155.433 217.847 155.864 217.734 156.371 217.734C156.848 217.734 157.261 217.839 157.611 218.049C157.964 218.256 158.238 218.561 158.431 218.964C158.624 219.367 158.721 219.859 158.721 220.439C158.721 220.966 158.631 221.429 158.451 221.829C158.274 222.229 158.011 222.542 157.661 222.769C157.314 222.992 156.884 223.104 156.371 223.104ZM156.371 222.374C156.681 222.374 156.943 222.296 157.156 222.139C157.369 221.982 157.531 221.757 157.641 221.464C157.751 221.171 157.806 220.822 157.806 220.419C157.806 220.049 157.758 219.717 157.661 219.424C157.564 219.127 157.409 218.892 157.196 218.719C156.986 218.546 156.711 218.459 156.371 218.459C156.058 218.459 155.793 218.537 155.576 218.694C155.359 218.847 155.194 219.071 155.081 219.364C154.971 219.657 154.916 220.009 154.916 220.419C154.916 220.782 154.966 221.112 155.066 221.409C155.166 221.706 155.323 221.941 155.536 222.114C155.749 222.287 156.028 222.374 156.371 222.374ZM159.931 223.004V217.834H160.821V218.584C160.965 218.357 161.161 218.159 161.411 217.989C161.661 217.819 161.986 217.734 162.386 217.734C162.573 217.734 162.763 217.766 162.956 217.829C163.153 217.892 163.333 217.987 163.496 218.114C163.66 218.241 163.786 218.396 163.876 218.579C164.036 218.326 164.253 218.122 164.526 217.969C164.8 217.812 165.108 217.734 165.451 217.734C165.631 217.734 165.82 217.762 166.016 217.819C166.213 217.872 166.395 217.969 166.561 218.109C166.731 218.246 166.87 218.437 166.976 218.684C167.083 218.927 167.136 219.241 167.136 219.624V223.004H166.206V219.714C166.206 219.401 166.156 219.159 166.056 218.989C165.956 218.816 165.825 218.694 165.661 218.624C165.501 218.554 165.33 218.519 165.146 218.519C164.986 218.519 164.816 218.551 164.636 218.614C164.456 218.677 164.303 218.784 164.176 218.934C164.05 219.084 163.986 219.289 163.986 219.549V223.004H163.066V219.444C163.066 219.241 163.011 219.071 162.901 218.934C162.795 218.797 162.66 218.694 162.496 218.624C162.336 218.554 162.176 218.519 162.016 218.519C161.84 218.519 161.661 218.554 161.481 218.624C161.305 218.694 161.155 218.806 161.031 218.959C160.911 219.109 160.851 219.306 160.851 219.549V223.004H159.931ZM171.34 224.654C171.036 224.654 170.828 224.632 170.715 224.589C170.601 224.546 170.545 224.524 170.545 224.524V223.924L171.07 223.934C171.263 223.941 171.423 223.927 171.55 223.894C171.676 223.861 171.778 223.816 171.855 223.759C171.931 223.702 171.99 223.639 172.03 223.569C172.073 223.499 172.108 223.432 172.135 223.369L172.315 222.879L170.295 217.834H171.23L172.755 221.824L174.27 217.834H175.175L172.995 223.394C172.861 223.721 172.711 223.976 172.545 224.159C172.381 224.342 172.198 224.471 171.995 224.544C171.795 224.617 171.576 224.654 171.34 224.654ZM178.031 223.104C177.555 223.104 177.138 223.002 176.781 222.799C176.425 222.592 176.148 222.291 175.951 221.894C175.755 221.497 175.656 221.012 175.656 220.439C175.656 219.899 175.748 219.426 175.931 219.019C176.115 218.612 176.383 218.297 176.736 218.074C177.093 217.847 177.525 217.734 178.031 217.734C178.508 217.734 178.921 217.839 179.271 218.049C179.625 218.256 179.898 218.561 180.091 218.964C180.285 219.367 180.381 219.859 180.381 220.439C180.381 220.966 180.291 221.429 180.111 221.829C179.935 222.229 179.671 222.542 179.321 222.769C178.975 222.992 178.545 223.104 178.031 223.104ZM178.031 222.374C178.341 222.374 178.603 222.296 178.816 222.139C179.03 221.982 179.191 221.757 179.301 221.464C179.411 221.171 179.466 220.822 179.466 220.419C179.466 220.049 179.418 219.717 179.321 219.424C179.225 219.127 179.07 218.892 178.856 218.719C178.646 218.546 178.371 218.459 178.031 218.459C177.718 218.459 177.453 218.537 177.236 218.694C177.02 218.847 176.855 219.071 176.741 219.364C176.631 219.657 176.576 220.009 176.576 220.419C176.576 220.782 176.626 221.112 176.726 221.409C176.826 221.706 176.983 221.941 177.196 222.114C177.41 222.287 177.688 222.374 178.031 222.374ZM183.413 223.104C183.143 223.101 182.888 223.062 182.648 222.989C182.412 222.912 182.202 222.801 182.018 222.654C181.835 222.507 181.69 222.326 181.583 222.109C181.48 221.889 181.428 221.634 181.428 221.344V217.834H182.353V221.249C182.353 221.586 182.457 221.859 182.663 222.069C182.873 222.279 183.188 222.384 183.608 222.384C183.988 222.384 184.293 222.286 184.523 222.089C184.757 221.889 184.873 221.592 184.873 221.199V217.834H185.793V223.004H185.058L184.963 222.014C184.9 222.274 184.792 222.484 184.638 222.644C184.488 222.804 184.307 222.922 184.093 222.999C183.883 223.072 183.657 223.107 183.413 223.104ZM187.295 223.004V217.834H188.175V218.829C188.261 218.582 188.383 218.379 188.54 218.219C188.696 218.056 188.875 217.934 189.075 217.854C189.278 217.774 189.488 217.734 189.705 217.734C189.781 217.734 189.856 217.739 189.93 217.749C190.003 217.759 190.06 217.776 190.1 217.799V218.694C190.05 218.671 189.985 218.656 189.905 218.649C189.828 218.639 189.763 218.634 189.71 218.634C189.503 218.621 189.31 218.634 189.13 218.674C188.95 218.711 188.791 218.776 188.655 218.869C188.518 218.962 188.41 219.086 188.33 219.239C188.253 219.389 188.215 219.572 188.215 219.789V223.004H187.295ZM40.2675 237.104C39.9342 237.104 39.6392 237.046 39.3825 236.929C39.1258 236.809 38.9242 236.637 38.7775 236.414C38.6342 236.191 38.5625 235.921 38.5625 235.604C38.5625 235.031 38.7625 234.604 39.1625 234.324C39.5625 234.044 40.2042 233.894 41.0875 233.874L42.0125 233.849V233.444C42.0125 233.127 41.9175 232.877 41.7275 232.694C41.5375 232.507 41.2425 232.414 40.8425 232.414C40.5458 232.417 40.2842 232.487 40.0575 232.624C39.8342 232.761 39.6892 232.984 39.6225 233.294H38.8075C38.8275 232.957 38.9225 232.674 39.0925 232.444C39.2625 232.211 39.4992 232.034 39.8025 231.914C40.1092 231.794 40.4708 231.734 40.8875 231.734C41.3375 231.734 41.7108 231.797 42.0075 231.924C42.3075 232.051 42.5308 232.237 42.6775 232.484C42.8275 232.731 42.9025 233.034 42.9025 233.394V237.004H42.1125L42.0475 236.034C41.8475 236.437 41.5925 236.717 41.2825 236.874C40.9758 237.027 40.6375 237.104 40.2675 237.104ZM40.5475 236.439C40.7208 236.439 40.8925 236.407 41.0625 236.344C41.2358 236.281 41.3942 236.196 41.5375 236.089C41.6808 235.979 41.7942 235.857 41.8775 235.724C41.9642 235.587 42.0092 235.447 42.0125 235.304V234.419L41.2425 234.434C40.8492 234.441 40.5192 234.481 40.2525 234.554C39.9892 234.627 39.7908 234.742 39.6575 234.899C39.5275 235.056 39.4625 235.261 39.4625 235.514C39.4625 235.804 39.5625 236.031 39.7625 236.194C39.9658 236.357 40.2275 236.439 40.5475 236.439ZM46.542 231.734C46.912 231.734 47.2454 231.806 47.542 231.949C47.8387 232.089 48.0804 232.289 48.267 232.549C48.457 232.809 48.5754 233.116 48.622 233.469H47.802C47.772 233.289 47.702 233.124 47.592 232.974C47.4854 232.824 47.3437 232.704 47.167 232.614C46.9904 232.524 46.7837 232.479 46.547 232.479C46.1037 232.479 45.7437 232.639 45.467 232.959C45.1904 233.279 45.052 233.769 45.052 234.429C45.052 235.026 45.1787 235.504 45.432 235.864C45.6887 236.221 46.0654 236.399 46.562 236.399C46.7987 236.399 47.0037 236.354 47.177 236.264C47.3537 236.171 47.4954 236.049 47.602 235.899C47.7087 235.746 47.777 235.582 47.807 235.409H48.612C48.5687 235.756 48.452 236.056 48.262 236.309C48.072 236.562 47.8287 236.759 47.532 236.899C47.2387 237.036 46.9087 237.104 46.542 237.104C46.0787 237.104 45.667 237.002 45.307 236.799C44.9504 236.596 44.6704 236.296 44.467 235.899C44.2637 235.502 44.162 235.016 44.162 234.439C44.162 233.899 44.2537 233.427 44.437 233.024C44.6237 232.617 44.8937 232.301 45.247 232.074C45.6037 231.847 46.0354 231.734 46.542 231.734ZM51.9327 231.734C52.3027 231.734 52.636 231.806 52.9327 231.949C53.2293 232.089 53.471 232.289 53.6577 232.549C53.8477 232.809 53.966 233.116 54.0127 233.469H53.1927C53.1627 233.289 53.0927 233.124 52.9827 232.974C52.876 232.824 52.7343 232.704 52.5577 232.614C52.381 232.524 52.1743 232.479 51.9377 232.479C51.4943 232.479 51.1343 232.639 50.8577 232.959C50.581 233.279 50.4427 233.769 50.4427 234.429C50.4427 235.026 50.5693 235.504 50.8227 235.864C51.0793 236.221 51.456 236.399 51.9527 236.399C52.1893 236.399 52.3943 236.354 52.5677 236.264C52.7443 236.171 52.886 236.049 52.9927 235.899C53.0993 235.746 53.1677 235.582 53.1977 235.409H54.0027C53.9593 235.756 53.8427 236.056 53.6527 236.309C53.4627 236.562 53.2193 236.759 52.9227 236.899C52.6293 237.036 52.2993 237.104 51.9327 237.104C51.4693 237.104 51.0577 237.002 50.6977 236.799C50.341 236.596 50.061 236.296 49.8577 235.899C49.6543 235.502 49.5527 235.016 49.5527 234.439C49.5527 233.899 49.6443 233.427 49.8277 233.024C50.0143 232.617 50.2843 232.301 50.6377 232.074C50.9943 231.847 51.426 231.734 51.9327 231.734ZM57.3183 237.104C56.8416 237.104 56.425 237.002 56.0683 236.799C55.7116 236.592 55.435 236.291 55.2383 235.894C55.0416 235.497 54.9433 235.012 54.9433 234.439C54.9433 233.899 55.035 233.426 55.2183 233.019C55.4016 232.612 55.67 232.297 56.0233 232.074C56.38 231.847 56.8116 231.734 57.3183 231.734C57.795 231.734 58.2083 231.839 58.5583 232.049C58.9116 232.256 59.185 232.561 59.3783 232.964C59.5716 233.367 59.6683 233.859 59.6683 234.439C59.6683 234.966 59.5783 235.429 59.3983 235.829C59.2216 236.229 58.9583 236.542 58.6083 236.769C58.2616 236.992 57.8316 237.104 57.3183 237.104ZM57.3183 236.374C57.6283 236.374 57.89 236.296 58.1033 236.139C58.3166 235.982 58.4783 235.757 58.5883 235.464C58.6983 235.171 58.7533 234.822 58.7533 234.419C58.7533 234.049 58.705 233.717 58.6083 233.424C58.5116 233.127 58.3566 232.892 58.1433 232.719C57.9333 232.546 57.6583 232.459 57.3183 232.459C57.005 232.459 56.74 232.537 56.5233 232.694C56.3066 232.847 56.1416 233.071 56.0283 233.364C55.9183 233.657 55.8633 234.009 55.8633 234.419C55.8633 234.782 55.9133 235.112 56.0133 235.409C56.1133 235.706 56.27 235.941 56.4833 236.114C56.6966 236.287 56.975 236.374 57.3183 236.374ZM62.7004 237.104C62.4304 237.101 62.1754 237.062 61.9354 236.989C61.6987 236.912 61.4887 236.801 61.3054 236.654C61.1221 236.507 60.9771 236.326 60.8704 236.109C60.7671 235.889 60.7154 235.634 60.7154 235.344V231.834H61.6404V235.249C61.6404 235.586 61.7437 235.859 61.9504 236.069C62.1604 236.279 62.4754 236.384 62.8954 236.384C63.2754 236.384 63.5804 236.286 63.8104 236.089C64.0437 235.889 64.1604 235.592 64.1604 235.199V231.834H65.0804V237.004H64.3454L64.2504 236.014C64.1871 236.274 64.0787 236.484 63.9254 236.644C63.7754 236.804 63.5937 236.922 63.3804 236.999C63.1704 237.072 62.9437 237.107 62.7004 237.104ZM66.5817 237.004V231.834H67.4767V232.584C67.56 232.441 67.675 232.306 67.8217 232.179C67.9717 232.052 68.1517 231.951 68.3617 231.874C68.575 231.797 68.82 231.759 69.0967 231.759C69.4233 231.759 69.7233 231.824 69.9967 231.954C70.2733 232.084 70.4933 232.287 70.6567 232.564C70.8233 232.837 70.9067 233.191 70.9067 233.624V237.004H69.9817V233.714C69.9817 233.311 69.875 233.012 69.6617 232.819C69.4517 232.622 69.1783 232.524 68.8417 232.524C68.6083 232.524 68.39 232.562 68.1867 232.639C67.9833 232.712 67.8183 232.826 67.6917 232.979C67.565 233.129 67.5017 233.319 67.5017 233.549V237.004H66.5817ZM74.7356 232.509H73.5706V235.724C73.5706 235.907 73.589 236.042 73.6256 236.129C73.6656 236.212 73.7306 236.266 73.8206 236.289C73.914 236.312 74.0406 236.324 74.2006 236.324H74.7656V236.944C74.7023 236.967 74.6056 236.987 74.4756 237.004C74.349 237.021 74.1906 237.029 74.0006 237.029C73.644 237.029 73.3673 236.981 73.1706 236.884C72.974 236.787 72.8356 236.644 72.7556 236.454C72.679 236.264 72.6406 236.031 72.6406 235.754V232.509H71.8006V231.834H72.6656L72.8906 230.329H73.5706V231.829H74.7356V232.509ZM79.3688 231.834V237.004H78.4738V231.834H79.3688ZM79.3888 229.779V230.739H78.4438V229.779H79.3888ZM82.8307 237.104C82.4707 237.104 82.1357 237.049 81.8257 236.939C81.519 236.826 81.264 236.651 81.0607 236.414C80.8574 236.174 80.729 235.869 80.6757 235.499H81.5157C81.5624 235.702 81.6457 235.872 81.7657 236.009C81.889 236.142 82.0424 236.244 82.2257 236.314C82.409 236.381 82.609 236.414 82.8257 236.414C83.1724 236.414 83.4524 236.349 83.6657 236.219C83.879 236.089 83.9857 235.889 83.9857 235.619C83.9857 235.429 83.929 235.277 83.8157 235.164C83.7057 235.047 83.534 234.962 83.3007 234.909L82.2307 234.644C81.814 234.544 81.4807 234.387 81.2307 234.174C80.9807 233.961 80.8557 233.662 80.8557 233.279C80.8524 232.976 80.924 232.709 81.0707 232.479C81.2174 232.249 81.4374 232.067 81.7307 231.934C82.024 231.801 82.389 231.734 82.8257 231.734C83.3857 231.734 83.8374 231.861 84.1807 232.114C84.5274 232.364 84.7074 232.732 84.7207 233.219H83.9057C83.8724 232.972 83.7607 232.777 83.5707 232.634C83.384 232.487 83.1324 232.414 82.8157 232.414C82.4857 232.414 82.2174 232.481 82.0107 232.614C81.804 232.744 81.7007 232.947 81.7007 233.224C81.7007 233.407 81.774 233.552 81.9207 233.659C82.0674 233.762 82.284 233.849 82.5707 233.919L83.6057 234.179C83.8457 234.242 84.0424 234.326 84.1957 234.429C84.3524 234.532 84.4757 234.647 84.5657 234.774C84.659 234.901 84.724 235.034 84.7607 235.174C84.8007 235.311 84.8207 235.442 84.8207 235.569C84.8207 235.886 84.7407 236.159 84.5807 236.389C84.424 236.616 84.1974 236.792 83.9007 236.919C83.6074 237.042 83.2507 237.104 82.8307 237.104ZM94.062 234.249C94.062 234.832 93.967 235.339 93.777 235.769C93.587 236.196 93.2787 236.526 92.852 236.759C92.4287 236.989 91.867 237.104 91.167 237.104C90.4637 237.104 89.9004 236.987 89.477 236.754C89.0537 236.517 88.747 236.182 88.557 235.749C88.3704 235.316 88.277 234.799 88.277 234.199V229.774H89.762V234.309C89.762 234.849 89.892 235.244 90.152 235.494C90.412 235.741 90.7504 235.864 91.167 235.864C91.4437 235.864 91.6887 235.811 91.902 235.704C92.1154 235.594 92.282 235.426 92.402 235.199C92.5254 234.969 92.587 234.672 92.587 234.309V229.774H94.062V234.249ZM98.2284 237.104C97.8717 237.104 97.5217 237.059 97.1784 236.969C96.835 236.879 96.5217 236.744 96.2384 236.564C95.955 236.384 95.72 236.159 95.5334 235.889C95.35 235.619 95.24 235.302 95.2034 234.939H96.6984C96.7484 235.159 96.8434 235.344 96.9834 235.494C97.1234 235.644 97.3 235.759 97.5134 235.839C97.7267 235.919 97.9634 235.959 98.2234 235.959C98.49 235.959 98.7334 235.926 98.9534 235.859C99.1734 235.792 99.35 235.692 99.4834 235.559C99.6167 235.422 99.6834 235.252 99.6834 235.049C99.6834 234.866 99.6284 234.716 99.5184 234.599C99.4117 234.482 99.2667 234.387 99.0834 234.314C98.9 234.241 98.6917 234.181 98.4584 234.134L97.2084 233.879C96.6617 233.776 96.2284 233.559 95.9084 233.229C95.5884 232.896 95.4234 232.452 95.4134 231.899C95.41 231.446 95.53 231.054 95.7734 230.724C96.02 230.391 96.3534 230.134 96.7734 229.954C97.1967 229.774 97.67 229.684 98.1934 229.684C98.8167 229.684 99.34 229.782 99.7634 229.979C100.19 230.172 100.513 230.436 100.733 230.769C100.957 231.099 101.072 231.467 101.078 231.874H99.6134C99.5867 231.621 99.51 231.419 99.3834 231.269C99.2567 231.119 99.0934 231.011 98.8934 230.944C98.6967 230.877 98.4717 230.844 98.2184 230.844C98.025 230.844 97.8484 230.866 97.6884 230.909C97.5317 230.952 97.3984 231.014 97.2884 231.094C97.1784 231.171 97.0934 231.262 97.0334 231.369C96.9734 231.476 96.9434 231.596 96.9434 231.729C96.9434 231.939 97.0134 232.109 97.1534 232.239C97.2934 232.369 97.555 232.476 97.9384 232.559L99.1784 232.814C99.6217 232.901 99.9734 233.029 100.233 233.199C100.497 233.369 100.693 233.561 100.823 233.774C100.957 233.987 101.043 234.206 101.083 234.429C101.127 234.649 101.148 234.852 101.148 235.039C101.148 235.429 101.025 235.781 100.778 236.094C100.535 236.404 100.195 236.651 99.7584 236.834C99.3217 237.014 98.8117 237.104 98.2284 237.104ZM107.291 237.104C106.424 237.104 105.721 236.931 105.181 236.584C104.641 236.234 104.331 235.696 104.251 234.969L105.771 234.939C105.851 235.269 106.023 235.521 106.286 235.694C106.553 235.864 106.886 235.949 107.286 235.949C107.526 235.949 107.738 235.911 107.921 235.834C108.108 235.754 108.254 235.647 108.361 235.514C108.468 235.377 108.521 235.222 108.521 235.049C108.521 234.782 108.436 234.584 108.266 234.454C108.096 234.321 107.834 234.214 107.481 234.134L106.296 233.879C105.746 233.769 105.304 233.551 104.971 233.224C104.641 232.894 104.473 232.452 104.466 231.899C104.463 231.446 104.584 231.054 104.831 230.724C105.081 230.391 105.419 230.134 105.846 229.954C106.276 229.774 106.758 229.684 107.291 229.684C107.838 229.684 108.309 229.782 108.706 229.979C109.106 230.172 109.413 230.434 109.626 230.764C109.843 231.091 109.948 231.452 109.941 231.849L108.466 231.874C108.419 231.554 108.313 231.302 108.146 231.119C107.979 230.936 107.703 230.844 107.316 230.844C107.116 230.844 106.938 230.866 106.781 230.909C106.624 230.952 106.489 231.014 106.376 231.094C106.263 231.171 106.176 231.262 106.116 231.369C106.059 231.476 106.031 231.596 106.031 231.729C106.031 231.939 106.101 232.106 106.241 232.229C106.384 232.349 106.653 232.461 107.046 232.564L108.211 232.849C108.868 233.006 109.341 233.274 109.631 233.654C109.924 234.034 110.071 234.496 110.071 235.039C110.071 235.456 109.956 235.819 109.726 236.129C109.499 236.439 109.178 236.679 108.761 236.849C108.344 237.019 107.854 237.104 107.291 237.104ZM106.666 228.739H107.931V230.039H106.666V228.739ZM106.641 236.659H107.901V237.959H106.641V236.659ZM112.283 237.004V231.589H110.993V230.764C111.406 230.764 111.739 230.726 111.993 230.649C112.249 230.569 112.441 230.456 112.568 230.309C112.694 230.159 112.769 229.981 112.793 229.774H113.763V237.004H112.283ZM118.07 229.674C118.93 229.674 119.608 229.996 120.105 230.639C120.602 231.279 120.85 232.201 120.85 233.404C120.85 234.601 120.605 235.519 120.115 236.159C119.625 236.796 118.943 237.114 118.07 237.114C117.193 237.114 116.508 236.796 116.015 236.159C115.525 235.522 115.28 234.606 115.28 233.409C115.28 232.609 115.393 231.931 115.62 231.374C115.847 230.817 116.168 230.396 116.585 230.109C117.002 229.819 117.497 229.674 118.07 229.674ZM118.07 235.919C118.5 235.919 118.815 235.727 119.015 235.344C119.215 234.957 119.315 234.312 119.315 233.409C119.315 232.486 119.213 231.824 119.01 231.424C118.807 231.024 118.492 230.824 118.065 230.824C117.638 230.824 117.32 231.026 117.11 231.429C116.903 231.832 116.8 232.492 116.8 233.409C116.8 234.309 116.903 234.952 117.11 235.339C117.317 235.726 117.637 235.919 118.07 235.919ZM124.971 229.774H126.406V234.179H127.521V235.404H126.406V237.004H125.001L125.006 235.404H121.676V234.204L124.971 229.774ZM123.026 234.179H125.006V231.529L123.026 234.179ZM128.304 237.004V235.414H129.904V237.004H128.304ZM133.599 237.114C133.149 237.114 132.729 237.027 132.339 236.854C131.949 236.681 131.631 236.437 131.384 236.124C131.137 235.807 130.999 235.437 130.969 235.014H132.359C132.419 235.294 132.552 235.522 132.759 235.699C132.966 235.872 133.226 235.959 133.539 235.959C133.886 235.959 134.189 235.877 134.449 235.714C134.712 235.551 134.909 235.291 135.039 234.934C135.172 234.577 135.219 234.111 135.179 233.534C135.086 233.711 134.956 233.866 134.789 233.999C134.626 234.129 134.434 234.231 134.214 234.304C133.994 234.374 133.749 234.409 133.479 234.409C132.989 234.409 132.554 234.317 132.174 234.134C131.797 233.947 131.501 233.684 131.284 233.344C131.071 233.001 130.964 232.594 130.964 232.124C130.964 231.651 131.077 231.229 131.304 230.859C131.531 230.489 131.847 230.199 132.254 229.989C132.661 229.779 133.137 229.674 133.684 229.674C134.297 229.674 134.826 229.821 135.269 230.114C135.716 230.404 136.057 230.817 136.294 231.354C136.534 231.887 136.654 232.516 136.654 233.239C136.654 234.102 136.531 234.822 136.284 235.399C136.041 235.972 135.691 236.402 135.234 236.689C134.777 236.972 134.232 237.114 133.599 237.114ZM133.729 233.249C133.932 233.249 134.129 233.204 134.319 233.114C134.512 233.021 134.671 232.904 134.794 232.764C134.917 232.624 134.979 232.479 134.979 232.329C134.982 232.006 134.931 231.729 134.824 231.499C134.721 231.266 134.574 231.087 134.384 230.964C134.197 230.841 133.979 230.779 133.729 230.779C133.499 230.779 133.294 230.832 133.114 230.939C132.934 231.046 132.792 231.196 132.689 231.389C132.586 231.582 132.534 231.806 132.534 232.059C132.534 232.436 132.644 232.729 132.864 232.939C133.084 233.146 133.372 233.249 133.729 233.249ZM140.297 229.674C141.157 229.674 141.835 229.996 142.332 230.639C142.828 231.279 143.077 232.201 143.077 233.404C143.077 234.601 142.832 235.519 142.342 236.159C141.852 236.796 141.17 237.114 140.297 237.114C139.42 237.114 138.735 236.796 138.242 236.159C137.752 235.522 137.507 234.606 137.507 233.409C137.507 232.609 137.62 231.931 137.847 231.374C138.073 230.817 138.395 230.396 138.812 230.109C139.228 229.819 139.723 229.674 140.297 229.674ZM140.297 235.919C140.727 235.919 141.042 235.727 141.242 235.344C141.442 234.957 141.542 234.312 141.542 233.409C141.542 232.486 141.44 231.824 141.237 231.424C141.033 231.024 140.718 230.824 140.292 230.824C139.865 230.824 139.547 231.026 139.337 231.429C139.13 231.832 139.027 232.492 139.027 233.409C139.027 234.309 139.13 234.952 139.337 235.339C139.543 235.726 139.863 235.919 140.297 235.919ZM144.062 237.004V235.824H145.162V237.004H144.062Z" fill="#36536B"/>
</g>
<defs>
<filter id="filter0_d_4915_7" x="-52.4272" y="-54.4305" width="418.14" height="658.873" filterUnits="userSpaceOnUse" color-interpolation-filters="sRGB">
<feFlood flood-opacity="0" result="BackgroundImageFix"/>
<feColorMatrix in="SourceAlpha" type="matrix" values="0 0 0 0 0 0 0 0 0 0 0 0 0 0 0 0 0 0 127 0" result="hardAlpha"/>
<feOffset dx="25" dy="25"/>
<feGaussianBlur stdDeviation="40"/>
<feColorMatrix type="matrix" values="0 0 0 0 0.212302 0 0 0 0 0.32521 0 0 0 0 0.419299 0 0 0 0.300727 0"/>
<feBlend mode="normal" in2="BackgroundImageFix" result="effect1_dropShadow_4915_7"/>
<feBlend mode="normal" in="SourceGraphic" in2="effect1_dropShadow_4915_7" result="shape"/>
</filter>
<filter id="filter1_d_4915_7" x="17.042" y="162.004" width="248.415" height="117.002" filterUnits="userSpaceOnUse" color-interpolation-filters="sRGB">
<feFlood flood-opacity="0" result="BackgroundImageFix"/>
<feColorMatrix in="SourceAlpha" type="matrix" values="0 0 0 0 0 0 0 0 0 0 0 0 0 0 0 0 0 0 127 0" result="hardAlpha"/>
<feMorphology radius="10" operator="erode" in="SourceAlpha" result="effect1_dropShadow_4915_7"/>
<feOffset dx="10" dy="10"/>
<feGaussianBlur stdDeviation="12.5"/>
<feColorMatrix type="matrix" values="0 0 0 0 0.212302 0 0 0 0 0.32521 0 0 0 0 0.419299 0 0 0 0.25 0"/>
<feBlend mode="normal" in2="BackgroundImageFix" result="effect1_dropShadow_4915_7"/>
<feBlend mode="normal" in="SourceGraphic" in2="effect1_dropShadow_4915_7" result="shape"/>
</filter>
<linearGradient id="paint0_linear_4915_7" x1="10.0337" y1="0" x2="10.0337" y2="12.3242" gradientUnits="userSpaceOnUse">
<stop stop-color="#454545"/>
<stop offset="0.226279" stop-color="#999999"/>
<stop offset="1" stop-color="white"/>
</linearGradient>
<linearGradient id="paint1_linear_4915_7" x1="260.599" y1="85.7495" x2="251.12" y2="85.7495" gradientUnits="userSpaceOnUse">
<stop stop-color="white" stop-opacity="0.01"/>
<stop offset="0.222178" stop-color="#BABABA"/>
<stop offset="0.54678" stop-color="white" stop-opacity="0.01"/>
<stop offset="1" stop-color="white" stop-opacity="0.01"/>
</linearGradient>
<linearGradient id="paint2_linear_4915_7" x1="2.57298" y1="85.4889" x2="12.0671" y2="85.4889" gradientUnits="userSpaceOnUse">
<stop stop-color="white" stop-opacity="0.01"/>
<stop offset="0.222178" stop-color="#BABABA"/>
<stop offset="0.54678" stop-color="white" stop-opacity="0.01"/>
<stop offset="1" stop-color="white" stop-opacity="0.01"/>
</linearGradient>
<linearGradient id="paint3_linear_4915_7" x1="15.9375" y1="12.4447" x2="15.9375" y2="473.836" gradientUnits="userSpaceOnUse">
<stop stop-color="#9CB6CD"/>
<stop offset="0.420564" stop-color="#9AB3CA"/>
<stop offset="0.716592" stop-color="#557496"/>
<stop offset="1" stop-color="#475178"/>
</linearGradient>
<clipPath id="clip0_4915_7">
<rect width="233.444" height="465.011" fill="white" transform="translate(15.103 12.4447)"/>
</clipPath>
<clipPath id="clip1_4915_7">
<rect width="218.415" height="87.0021" fill="white" transform="translate(22.042 167.004)"/>
</clipPath>
<clipPath id="clip2_4915_7">
<rect width="187.356" height="11.0003" fill="white" transform="translate(38.0725 183.004)"/>
</clipPath>
</defs>
</svg>
